<?xml version="1.0" encoding="UTF-8" standalone="no"?>
<svg
   width="120"
   height="24"
   viewBox="0 0 120 24"
   fill="none"
   version="1.1"
   id="svg35"
   sodipodi:docname="hacklab.svg"
   inkscape:version="1.1.1 (1:1.1+202109281944+c3084ef5ed)"
   xmlns:inkscape="http://www.inkscape.org/namespaces/inkscape"
   xmlns:sodipodi="http://sodipodi.sourceforge.net/DTD/sodipodi-0.dtd"
   xmlns="http://www.w3.org/2000/svg"
   xmlns:svg="http://www.w3.org/2000/svg">
  <sodipodi:namedview
     id="namedview37"
     pagecolor="#ffffff"
     bordercolor="#666666"
     borderopacity="1.0"
     inkscape:pageshadow="2"
     inkscape:pageopacity="0.0"
     inkscape:pagecheckerboard="0"
     showgrid="false"
     inkscape:zoom="5.25"
     inkscape:cx="74.761905"
     inkscape:cy="32.47619"
     inkscape:window-width="1920"
     inkscape:window-height="1016"
     inkscape:window-x="0"
     inkscape:window-y="27"
     inkscape:window-maximized="1"
     inkscape:current-layer="svg35" />
  <path
     d="m 0,1.06181 c 1.22389,0 2.44946,-0.01503 3.67335,0.00501 1.25729,0.02003 1.83,0.5894 1.84002,1.85671 0.01836,2.1105 0.005,4.22268 0.005,6.50517 0.17365,-0.20872 0.2538,-0.29554 0.32393,-0.38904 1.67137,-2.21737 4.56,-3.06057 7.1564,-2.08547 1.7381,0.65286 2.8167,2.34427 2.8568,4.58831 0.0351,1.9486 0.015,3.8988 0.0184,5.8473 0.0033,1.3609 0.0017,1.3592 1.3975,1.3943 0.1086,0.0033 0.2154,0.02 0.3774,0.035 0,1.0252 0,2.0371 0,3.1174 -1.3308,0 -2.6331,0.0534 -3.9305,-0.0167 -0.9885,-0.0535 -1.4877,-0.6779 -1.5144,-1.7549 -0.0318,-1.2807 -0.01,-2.5613 -0.0117,-3.8437 0,-1.0853 0.0117,-2.1722 -0.0034,-3.2576 -0.015,-1.1003 -0.0333,-2.2741 -1.2122,-2.8034 C 9.77445,9.72089 8.56726,9.99139 7.50031,10.7244 6.06604,11.7095 5.55678,13.1805 5.53173,14.8435 5.50335,16.8756 5.52338,18.9093 5.52338,20.943 c 0,0.3022 0,0.6027 0,0.9551 -1.24226,0 -2.42107,0 -3.69338,0 0,-0.3173 0,-0.6145 0,-0.9117 0,-4.9857 0,-9.9698 0,-14.95555 C 1.83,4.23091 1.83,4.23091 0,4.23758 0,3.17732 0,2.1204 0,1.06181 Z"
     fill="white"
     id="path2"
     style="fill:#000000;fill-opacity:1" />
  <path
     d="m 56.4328,12.1654 c 1.5127,0.3156 2.4678,-0.1536 3.139,-1.4343 0.6045,-1.15209 1.3659,-2.22738 2.1172,-3.29265 0.182,-0.25713 0.5944,-0.4742 0.9117,-0.49089 1.1053,-0.06011 2.2174,-0.02338 3.5481,-0.02338 -1.6313,2.39436 -3.1657,4.65012 -4.6551,6.83582 0.6595,1.1754 1.4176,2.391 2.0353,3.675 0.4626,0.9617 1.0236,1.5628 2.164,1.3541 0.1052,-0.02 0.2204,0.0134 0.3306,0.0267 0.0234,0.0034 0.0434,0.0334 0.1185,0.0985 0,0.9434 0,1.9335 0,2.9838 -1.1855,0 -2.3876,0.1169 -3.5498,-0.0534 -0.5242,-0.0768 -1.1103,-0.6329 -1.4159,-1.1271 -0.7747,-1.2489 -1.4075,-2.5847 -2.0938,-3.8871 -0.7731,-1.4643 -0.8749,-1.5194 -2.6248,-1.3624 0,2.1171 0,4.2477 0,6.4283 -1.2706,0 -2.4544,0 -3.7685,0 0,-0.3055 0,-0.6261 0,-0.9467 0,-4.9574 0,-9.9147 0,-14.87206 0,-1.72981 0,-1.72981 -1.8016,-1.91181 0,-0.50091 0,-1.01852 0,-1.53613 0,-0.49423 0,-0.98679 0,-1.54614 1.4693,0 2.8552,-0.0551 4.2344,0.01836 0.9217,0.05009 1.3007,0.64117 1.3057,1.79828 0.01,2.78506 0.0033,5.57013 0.005,8.3552 0,0.2989 0,0.5994 0,0.91 z"
     fill="white"
     id="path4"
     style="fill:#000000;fill-opacity:1" />
  <path
     d="m 34.049,21.9297 c -1.2507,0 -2.4712,0.0618 -3.6817,-0.0183 -1.0369,-0.0702 -1.3759,-0.5928 -1.5512,-2.1039 -0.8682,1.2707 -1.9469,2.1005 -3.4112,2.4044 -2.9303,0.6078 -5.6286,-1.102 -6.1295,-3.9255 -0.3072,-1.7281 0.4959,-3.3744 2.1439,-4.3395 1.5712,-0.9217 3.316,-1.2273 5.0993,-1.3441 0.6562,-0.0435 1.3191,-0.0067 2.007,-0.0067 0.0935,-1.1555 -0.0134,-2.1439 -0.9618,-2.70661 -1.0385,-0.61779 -2.209,-0.61612 -3.2592,-0.0384 -0.329,0.18201 -0.4125,0.81151 -0.6612,1.35081 -0.9267,0 -2.0287,0 -3.1374,0 -0.5811,-2.02871 0.1402,-3.47301 2.1456,-4.13421 1.9184,-0.63115 3.877,-0.67456 5.8272,-0.15528 2.2975,0.61111 3.6416,2.23573 3.7502,4.61509 0.0885,1.9435 0.0634,3.8921 0.0785,5.8389 0.0116,1.3742 0.0033,1.3742 1.3641,1.4176 0.1069,0.0033 0.2137,0.0234 0.3807,0.0417 -0.0033,1.0269 -0.0033,2.0337 -0.0033,3.104 z m -5.4466,-6.8023 c -1.5028,-0.0835 -2.9304,-0.0234 -4.2845,0.5459 -0.6896,0.2889 -1.2306,0.7481 -1.289,1.5829 -0.0968,1.3625 1.0569,2.3326 2.5213,2.1122 1.8166,-0.2755 3.1023,-2.022 3.0522,-4.241 z"
     fill="white"
     id="path6"
     style="fill:#000000;fill-opacity:1" />
  <path
     d="m 49.1679,11.7231 c -1.0686,0 -2.0904,0 -3.1056,0 -0.4425,-1.75992 -1.4259,-2.31593 -3.266,-1.86845 -2.396,0.58435 -3.7969,2.86185 -3.3577,5.45825 0.3957,2.3326 2.4695,3.8938 4.8839,3.7051 1.6012,-0.1252 2.8902,-0.8866 4.1425,-1.9803 0.4742,0.7748 0.95,1.5078 1.3658,2.2725 0.0785,0.1436 -0.0217,0.4809 -0.1536,0.6245 -2.1222,2.3476 -6.4952,3.0505 -9.6793,1.5745 -3.0004,-1.3909 -4.6885,-4.5733 -4.3212,-7.9378 0.6896,-6.33652 7.3133,-8.2667 11.6596,-6.20461 1.6797,0.80146 2.1489,1.94187 1.8316,4.35631 z"
     fill="white"
     id="path8"
     style="fill:#000000;fill-opacity:1" />
  <path
     d="m 74.2436,18.8826 c 0,0.9801 0,1.9685 0,3.0338 -1.3708,0 -2.7283,0.0668 -4.074,-0.0234 -0.9484,-0.0634 -1.3725,-0.6745 -1.3792,-1.7615 -0.0184,-3.3978 -0.0117,-6.7957 -0.0134,-10.19354 -0.0016,-1.44763 0,-2.89694 0,-4.34457 C 68.7754,4.27099 68.762,4.25763 67.4196,4.23425 67.3094,4.23258 67.1975,4.22089 67.0205,4.21088 c 0,-1.01351 0,-2.02536 0,-3.12068 1.3391,0 2.6966,-0.06846 4.0424,0.02337 0.9667,0.06679 1.4075,0.7664 1.4092,1.93352 0.005,4.56831 0.0033,9.13491 0.0033,13.70331 0,1.8249 0,1.8249 1.7682,2.1322 z"
     fill="white"
     id="path10"
     style="fill:#000000;fill-opacity:1" />
  <path
     d="M 119.999,0.0149949 C 119.849,0.520915 119.754,0.859865 119.647,1.19548 117.395,8.2099 115.131,15.221 112.9,22.2421 c -0.221,0.6929 -0.524,1.0169 -1.281,0.935 -0.628,-0.0684 -1.267,-0.0133 -2.014,-0.0133 0.071,-0.334 0.097,-0.5694 0.169,-0.7915 2.303,-7.2031 4.615,-14.40116 6.904,-21.607608 0.184,-0.579387 0.47,-0.7997883 1.071,-0.75804566 0.686,0.04508206 1.379,0.00834856 2.25,0.00834856 z"
     fill="white"
     id="path12"
     style="fill:#cf0111;fill-opacity:1" />
  <path
     d="m 100.471,6.78373 c -1.0985,0.26716 -2.0853,0.99348 -3.1022,1.4994 0,-1.72481 0.0167,-3.61157 -0.0067,-5.49667 C 97.3488,1.78965 96.8846,1.16518 95.9763,1.10841 94.6288,1.02492 93.2714,1.0867 91.9072,1.0867 c 0,1.08364 0,2.09548 0,3.10231 1.7783,0.13525 1.7783,0.13525 1.7783,1.93352 0,0.16697 0,0.33394 0,0.50091 0,5.06426 0,10.13006 0,15.27116 1.2155,0 2.3392,0 3.5431,0 0,-0.5327 0,-1.0102 0,-1.4911 0.5877,0.4358 1.0836,0.8933 1.6563,1.2089 2.9851,1.6446 6.9891,0.3523 8.6161,-2.8285 1.309,-2.5597 1.357,-5.2395 0.389,-7.9211 -1.159,-3.20915 -4.116,-4.88386 -7.419,-4.07907 z m 3.724,10.27867 c -0.625,1.3358 -1.709,2.0788 -3.24,2.0655 -1.5091,-0.0134 -2.5409,-0.7815 -3.1053,-2.1089 -0.3389,-0.7998 -0.4608,-1.6897 -0.6879,-2.568 0.2321,-0.8949 0.3623,-1.7816 0.6912,-2.5864 0.5577,-1.3708 1.6998,-2.04701 3.146,-2.06872 1.424,-0.02004 2.531,0.65952 3.145,1.95352 0.829,1.7449 0.872,3.5565 0.051,5.313 z"
     fill="white"
     id="path22"
     style="fill:#000000;fill-opacity:1" />
  <path
     d="M 89.0029,17.475 C 89.0012,15.7218 89.028,13.967 88.9895,12.2138 88.9328,9.56397 87.8074,7.80411 85.6468,7.06944 83.4712,6.32809 81.2605,6.38319 79.1032,7.13622 77.2766,7.77405 76.6037,9.3035 77.1747,11.1936 c 1.1037,0 2.199,0 3.2877,0 0.0851,-1.29568 0.2487,-1.49605 1.4559,-1.65467 0.4342,-0.05677 0.8883,-0.05009 1.3225,0.01169 1.5094,0.21706 2.2791,1.46428 1.835,3.04718 -0.6395,0 -1.3074,-0.0434 -1.9686,0.0084 -1.8951,0.1486 -3.7502,0.4675 -5.3665,1.5695 -0.9851,0.6712 -1.6229,1.5745 -1.7715,2.7901 -0.4625,3.7969 2.8535,5.7772 6.051,5.2479 1.4677,-0.2422 2.5764,-1.0703 3.4346,-2.3426 0.2421,1.4476 0.5894,1.9736 1.5662,2.0387 1.2372,0.0818 2.4845,0.02 3.7652,0.02 0,-1.0603 0,-2.0487 0,-3.1073 -0.2288,-0.0167 -0.3674,-0.0351 -0.5043,-0.0384 -1.279,-0.0284 -1.279,-0.0284 -1.279,-1.3091 z m -6.8308,1.9018 c -1.1387,0.1453 -2.1422,-0.4458 -2.4377,-1.4376 -0.2739,-0.9183 0.1886,-1.7732 1.2272,-2.2624 0.0251,-0.0117 0.0484,-0.0284 0.0735,-0.0384 1.3741,-0.516 2.7934,-0.6128 4.236,-0.5043 0.1703,2.0921 -1.2473,4.0056 -3.099,4.2427 z"
     fill="white"
     id="path24"
     style="fill:#000000;fill-opacity:1" />
  <defs
     id="defs33">
    <clipPath
       id="clip0">
      <rect
         width="120"
         height="23.1889"
         fill="white"
         id="rect30" />
    </clipPath>
  </defs>
</svg>
