<?xml version="1.0" encoding="UTF-8" standalone="no"?>
<svg xmlns="http://www.w3.org/2000/svg" width="279px" height="60px" viewBox="0 0 279 60" version="1.1"><g><path d="M267.45486,5.40659011 C267.45486,5.40659011 247.380346,8.5553967 241.369374,31.5164835 C235.358405,54.4775473 236.626564,60 246.112189,60 C255.597818,60 277.411598,53.4065901 278.208382,32.6373626 C279.005166,11.8681319 267.45486,5.40659011 267.45486,5.40659011 Z" fill="#006633"/><polygon fill="#006633" points="240.572583 2.37362308 245.315399 2.37362308 247.686803 18.6499154 257.172428 18.6499154 257.172428 40.3516484 231.086955 49.8461538"/><path d="M252.429619,11.8681319 C252.429619,11.8681319 257.172428,9.49450549 264.286655,9.49450549 C283.257905,52.2197802 250.058211,59.3406593 250.058211,59.3406593 L252.429619,11.8681319 Z" fill="#404040" opacity="0.7"/><path d="M242.943991,1.87395886e-14 C242.943991,1.87395886e-14 226.344142,11.8681319 226.344142,35.6043956 C226.344142,59.3406593 241.170178,60 244.464852,60 C231.286154,46.8131868 242.943991,2.37362308 242.943991,2.37362308 C242.943991,2.37362308 241.170178,50.1098901 250.058211,59.3406593 C255.996213,56.7032967 264.316986,51.5937989 264.286738,37.9780253 C264.232899,13.8461538 242.943991,1.87395886e-14 242.943991,1.87395886e-14 Z" fill="#73A229"/><g fill="#202020" transform="translate(0.259327, 17.682313)"><polyline points="0.399608007 25.4929058 0.399608007 0.546778029 4.76505185 0.546778029 4.76505185 25.4929058 0.399608007 25.4929058"/><path d="M27.5301595,25.4929058 L21.8687242,25.4929058 L14.1609876,7.42317372 L13.9393052,7.42317372 C14.2235074,8.7996133 14.3656115,10.2784001 14.3656177,11.8595606 L14.3656177,25.4929058 L10.0683841,25.4929058 L10.0683841,0.546778029 L15.7639241,0.546778029 L23.4034504,18.4288178 L23.5910281,18.4288178 C23.3750143,17.2344178 23.2670148,15.8125013 23.2670307,14.1630683 L23.2670307,0.546778029 L27.5301595,0.546778029 L27.5301595,25.4929058"/><polyline points="36.5679922 25.4929058 31.9638136 25.4929058 31.9638136 0.546778029 43.1332104 0.546778029 43.1332104 4.55658907 36.5679922 4.55658907 36.5679922 11.484176 42.6898456 11.484176 42.6898456 15.493987 36.5679922 15.493987 36.5679922 25.4929058"/><path d="M63.4427557,12.9857232 C63.4427557,17.1149804 62.6696898,20.2886948 61.1236141,22.5068838 C59.5775041,24.7250728 57.3663628,25.8341718 54.4901856,25.8341718 C51.6026186,25.8341718 49.3857937,24.7307607 47.8397048,22.5239475 C46.2936081,20.3057585 45.5205623,17.1149804 45.5205623,12.9515958 C45.5205623,8.82236495 46.2936081,5.66001765 47.8397048,3.46455389 C49.3857937,1.25776705 51.6139874,0.154329672 54.5242903,0.154329672 C57.4004683,0.154329672 59.6059244,1.26345496 61.1406664,3.48161763 C62.6753742,5.68845721 63.4427557,8.85648363 63.4427557,12.9857232 M50.2611615,12.9857232 C50.2611615,15.829565 50.6192584,17.9965629 51.3354706,19.4867255 C52.0516678,20.9769058 53.1032383,21.7219871 54.4901856,21.7219871 C57.2867845,21.7219871 58.6851041,18.8098991 58.6851041,12.9857232 C58.6851041,7.16156492 57.2981533,4.24945939 54.5242903,4.24945939 C53.1146072,4.24945939 52.0516678,4.9945583 51.3354706,6.48471217 C50.6192584,7.96352537 50.2611615,10.1305232 50.2611615,12.9857232"/><path d="M78.8923345,25.4929058 L77.4599233,19.1966596 L70.9629155,19.1966596 L69.5305034,25.4929058 L64.8922201,25.4929058 L71.0652305,0.444404401 L77.3576083,0.444404401 L83.5476675,25.4929058 L78.8923345,25.4929058 M76.5902452,15.0844749 L75.260149,9.28304187 C75.1805585,8.93042649 74.998667,8.04883527 74.7144683,6.63827701 C74.4416183,5.21637809 74.2767774,4.26654071 74.2199456,3.78875609 C74.0721482,4.76705061 73.8845706,5.84770996 73.6572125,7.03072536 C73.4298369,8.20240889 72.8386836,10.8869804 71.8837507,15.0844749 L76.5902452,15.0844749"/><path d="M94.6829648,25.4929058 L89.9423673,4.24945939 L89.7547905,4.24945939 C89.9707806,5.88752535 90.0787757,7.38907262 90.0787844,8.75409242 L90.0787844,25.4929058 L85.7815535,25.4929058 L85.7815535,0.546778029 L92.9094986,0.546778029 L97.1726318,20.1521849 L97.3090489,20.1521849 L101.538076,0.546778029 L108.76834,0.546778029 L108.76834,25.4929058 L104.36879,25.4929058 L104.36879,8.58346384 C104.368772,7.18431657 104.448389,5.75102425 104.607526,4.28357808 L104.471109,4.28357808 L99.7475562,25.4929058 L94.6829648,25.4929058"/><path d="M125.002335,25.4929058 L123.569925,19.1966596 L117.072914,19.1966596 L115.640504,25.4929058 L111.002217,25.4929058 L117.175234,0.444404401 L123.467605,0.444404401 L129.657675,25.4929058 L125.002335,25.4929058 M122.700245,15.0844749 L121.370145,9.28304187 C121.290546,8.93042649 121.108671,8.04883527 120.824468,6.63827701 C120.551616,5.21637809 120.386777,4.26654071 120.329942,3.78875609 C120.182147,4.76705061 119.99457,5.84770996 119.767211,7.03072536 C119.539835,8.20240889 118.948682,10.8869804 117.993754,15.0844749 L122.700245,15.0844749"/><polyline points="143.913574 25.4929058 130.425036 25.4929058 130.425036 22.2509365 138.388563 4.59071654 130.663772 4.59071654 130.663772 0.546778029 143.657784 0.546778029 143.657784 3.78875609 135.694266 21.4319124 143.913574 21.4319124 143.913574 25.4929058"/><path d="M163.98438,12.9857232 C163.98438,17.1149804 163.211318,20.2886948 161.665246,22.5068838 C160.11913,24.7250728 157.90799,25.8341718 155.031818,25.8341718 C152.144251,25.8341718 149.927418,24.7307607 148.381337,22.5239475 C146.835239,20.3057585 146.062194,17.1149804 146.062194,12.9515958 C146.062194,8.82236495 146.835239,5.66001765 148.381337,3.46455389 C149.927418,1.25776705 152.15562,0.154329672 155.065916,0.154329672 C157.942096,0.154329672 160.147552,1.26345496 161.682299,3.48161763 C163.217002,5.68845721 163.98438,8.85648363 163.98438,12.9857232 M150.802791,12.9857232 C150.802791,15.829565 151.160883,17.9965629 151.877101,19.4867255 C152.593293,20.9769058 153.644866,21.7219871 155.031818,21.7219871 C157.828417,21.7219871 159.22673,18.8098991 159.22673,12.9857232 C159.22673,7.16156492 157.839786,4.24945939 155.065916,4.24945939 C153.656234,4.24945939 152.593293,4.9945583 151.877101,6.48471217 C151.160883,7.96352537 150.802791,10.1305232 150.802791,12.9857232"/><path d="M185.095399,25.4929058 L179.433962,25.4929058 L171.726224,7.42317372 L171.504541,7.42317372 C171.788744,8.7996133 171.930854,10.2784001 171.930854,11.8595606 L171.930854,25.4929058 L167.633623,25.4929058 L167.633623,0.546778029 L173.329167,0.546778029 L180.968691,18.4288178 L181.156268,18.4288178 C180.940252,17.2344178 180.832257,15.8125013 180.832266,14.1630683 L180.832266,0.546778029 L185.095399,0.546778029 L185.095399,25.4929058"/><polyline points="190.364629 25.4929058 190.364629 0.546778029 194.730073 0.546778029 194.730073 25.4929058 190.364629 25.4929058"/><path d="M211.833739,25.4929058 L210.401329,19.1966596 L203.904318,19.1966596 L202.471908,25.4929058 L197.83363,25.4929058 L204.006638,0.444404401 L210.299018,0.444404401 L216.489079,25.4929058 L211.833739,25.4929058 M209.531649,15.0844749 L208.201558,9.28304187 C208.121959,8.93042649 207.940075,8.04883527 207.655872,6.63827701 C207.383029,5.21637809 207.218181,4.26654071 207.161354,3.78875609 C207.013551,4.76705061 206.825974,5.84770996 206.598615,7.03072536 C206.371248,8.20240889 205.780095,10.8869804 204.825158,15.0844749 L209.531649,15.0844749"/></g></g></svg>