<?xml version="1.0" encoding="UTF-8" standalone="no"?>
<svg width="120" height="94" viewBox="0 0 120 94" version="1.1" xmlns="http://www.w3.org/2000/svg">
  <path d="m 13.1324,78.1458 v 14.8314 h -0.826 V 79.0188 L 6.58709,86.5364 0.826,79.024 V 92.9824 H 0 V 78.151 h 1.23377 l 5.35855,7.0576 5.35858,-7.0576 h 1.1815 z" style="fill:#808283"/>
  <path d="m 21.9409,78.1458 5.3586,14.8314 h -0.8731 l -2.3682,-6.5401 h -5.1494 l -2.4205,6.5401 h -0.8731 l 5.4579,-14.8314 z m 1.7514,7.4706 -2.2637,-6.2316 -2.2637,6.2316 z" style="fill:#808283"/>
  <path d="m 30.9022,87.8331 v 5.1494 h -0.826 V 78.1511 h 3.9156 c 1.1345,0.1569 2.1121,0.6169 2.8858,1.4429 0.9253,0.9253 1.3906,2.1121 1.3906,3.3981 0,1.3383 -0.4653,2.4728 -1.3906,3.4504 -0.9253,0.9253 -2.0598,1.4429 -3.3981,1.4429 z m 0,-8.8612 v 7.9829 h 2.525 c 1.0822,0 2.0598,-0.413 2.8335,-1.1867 0.7737,-0.7737 1.1867,-1.6991 1.1867,-2.8335 0,-1.0822 -0.413,-2.0598 -1.1867,-2.8335 -0.7737,-0.7737 -1.699,-1.1867 -2.8335,-1.1867 z" style="fill:#808283"/>
  <path d="m 49.9569,84.3774 c 0.9776,0.9776 1.4952,2.1643 1.4952,3.5549 0,1.3906 -0.5176,2.5774 -1.5474,3.555 -0.826,0.826 -1.8559,1.3383 -3.0897,1.4951 H 41.6133 V 77.8896 h 4.7887 c 0.9776,0 1.8036,0.3085 2.4728,0.9777 0.6691,0.6691 0.9776,1.4428 0.9776,2.3159 0,0.873 -0.3085,1.699 -0.9776,2.3159 0.2091,0.1098 0.5698,0.366 1.0821,0.8783 z m -6.4877,-4.841 v 3.2988 h 3.0373 c 0.413,-0.0523 0.7215,-0.1568 0.9777,-0.413 0.3084,-0.3085 0.4652,-0.7215 0.4652,-1.1867 0,-0.5176 -0.1568,-0.8731 -0.4652,-1.2338 -0.3085,-0.3084 -0.6692,-0.4653 -1.0822,-0.4653 z m 2.7812,11.794 c 0.873,0 1.6468,-0.3084 2.3159,-0.9776 0.6692,-0.6691 0.9776,-1.4951 0.9776,-2.4205 0,-0.9776 -0.3084,-1.8036 -0.9776,-2.4204 -0.6691,-0.6692 -1.4429,-0.9777 -2.3159,-0.9777 h -2.729 v 6.8485 z" style="fill:#84caa0"/>
  <path d="M 56.6543,77.8896 V 92.9824 H 54.7461 V 77.8896 Z" style="fill:#84caa0"/>
  <path d="m 73.5457,79.9494 c 1.5475,1.5475 2.2637,3.3459 2.2637,5.4579 0,2.1121 -0.7737,3.968 -2.2637,5.4579 -1.5474,1.5474 -3.3981,2.2636 -5.5624,2.2636 -2.2166,0 -4.0673,-0.7737 -5.5624,-2.2636 -1.5475,-1.5475 -2.2637,-3.3458 -2.2637,-5.4579 0,-2.112 0.7737,-3.9156 2.2637,-5.4579 1.5474,-1.5474 3.3981,-2.2636 5.5624,-2.2636 2.1643,0 4.0202,0.7214 5.5624,2.2636 z M 67.931,79.3326 c -1.5945,0 -2.9851,0.5646 -4.1718,1.7513 -1.1867,1.1867 -1.7513,2.6244 -1.7513,4.3286 0,1.6991 0.5646,3.142 1.7513,4.3287 1.1867,1.1867 2.5773,1.7513 4.1718,1.7513 1.5945,0 2.9851,-0.5646 4.1719,-1.7513 1.1867,-1.1867 1.7513,-2.6244 1.7513,-4.3287 0,-1.699 -0.5646,-3.1419 -1.7513,-4.3286 -1.1293,-1.1867 -2.4728,-1.7513 -4.1719,-1.7513 z" style="fill:#84caa0"/>
  <path d="M 92.7055,77.8896 V 92.9824 H 90.7973 V 80.7231 L 85.904,87.2109 80.9062,80.7231 V 92.9824 H 78.998 V 77.8896 h 2.0075 l 4.841,6.3362 4.841,-6.3362 z" style="fill:#84caa0"/>
  <path d="m 102.387,77.8896 5.458,15.0928 h -1.955 l -2.264,-6.2838 h -4.1195 l -2.3159,6.2838 h -1.9552 l 5.5626,-15.0928 z m 0.617,7.1622 -1.443,-4.015 -1.443,4.015 z" style="fill:#84caa0"/>
  <path d="m 115.316,85.0518 c -1.082,-0.3607 -1.955,-0.873 -2.624,-1.5474 -0.669,-0.6692 -0.978,-1.4429 -0.978,-2.3682 0,-0.9254 0.361,-1.6991 1.03,-2.4205 0.669,-0.6692 1.548,-1.0299 2.525,-1.0299 0.978,0 1.856,0.3607 2.578,1.0822 0.36,0.3607 0.669,0.873 0.873,1.5474 l -1.699,0.6692 c -0.204,-0.5646 -0.413,-0.9254 -0.565,-1.0822 -0.361,-0.3607 -0.722,-0.5176 -1.187,-0.5176 -0.413,0 -0.826,0.1569 -1.187,0.5176 -0.36,0.3607 -0.517,0.7737 -0.517,1.286 0,0.5176 0.157,0.9777 0.517,1.3384 0.361,0.3607 0.874,0.6691 1.496,0.9776 1.186,0.413 2.216,0.9776 3.037,1.8036 0.925,0.9253 1.391,2.0075 1.391,3.2988 0,1.2337 -0.466,2.3682 -1.391,3.2987 -0.925,0.9254 -2.06,1.3906 -3.398,1.3906 -1.338,0 -2.473,-0.4652 -3.398,-1.3906 -0.722,-0.7214 -1.187,-1.6467 -1.339,-2.7812 l 1.804,-0.6691 c 0.105,1.0821 0.413,1.9081 0.925,2.4204 0.565,0.5647 1.234,0.826 2.008,0.826 0.774,0 1.443,-0.3084 2.007,-0.873 0.565,-0.5646 0.873,-1.2861 0.873,-2.1643 0,-0.8783 -0.256,-1.5475 -0.826,-2.1121 -0.512,-0.7319 -1.181,-1.1919 -1.955,-1.5004 z" style="fill:#84caa0"/>
  <path d="M 48.1902,33.8973 37.1699,22.877 48.1902,11.8567 Z" style="fill:#84caa0"/>
  <path d="M 48.1904,33.8973 59.216,22.877 48.1904,11.8567 Z" style="fill:#77b893"/>
  <path d="M 48.9326,11.1144 59.9529,0 70.9732,11.1144 Z" style="fill:#75c7e0"/>
  <path d="M 48.9326,11.1145 59.9529,22.1348 70.9732,11.1145 Z" style="fill:#62a5bb"/>
  <path d="M 36.4275,22.1347 25.4072,11.1144 36.4275,0 Z" style="fill:#75c7e0"/>
  <path d="M 36.4277,22.1347 47.5421,11.1144 36.4277,0 Z" style="fill:#62a5bb"/>
  <path d="M 71.7156,57.4227 60.6953,46.4024 71.7156,35.3821 Z" style="fill:#dcdb77"/>
  <path d="M 71.7158,57.4227 82.7361,46.4024 71.7158,35.3821 Z" style="fill:#c5c56c"/>
  <path d="M 59.9529,45.66 48.9326,34.6397 59.9529,23.6194 Z" style="fill:#84caa0"/>
  <path d="M 59.9531,45.66 70.9734,34.6397 59.9531,23.6194 Z" style="fill:#77b893"/>
  <path d="M 83.4783,22.1347 72.458,11.1144 83.4783,0 Z" style="fill:#84caa0"/>
  <path d="M 83.4785,22.1347 94.5929,11.1144 83.4785,0 Z" style="fill:#77b893"/>
  <path d="M 60.6953,22.877 71.7156,11.8567 82.7359,22.877 Z" style="fill:#dcdb77"/>
  <path d="M 60.6953,22.8772 71.7156,33.8975 82.7359,22.8772 Z" style="fill:#c5c56c"/>
  <path d="M 25.4072,34.5457 36.4275,23.5254 47.5419,34.5457 Z" style="fill:#75c7e0"/>
  <path d="M 25.4072,34.5457 36.4275,45.6601 47.5419,34.5457 Z" style="fill:#62a5bb"/>
  <path d="M 37.1699,46.4025 48.2843,35.2881 59.3046,46.4025 Z" style="fill:#75c7e0"/>
  <path d="M 37.1699,46.3083 48.2843,57.4227 59.3046,46.3083 Z" style="fill:#62a5bb"/>
  <path d="M 48.9326,58.1649 60.047,47.0505 71.0673,58.1649 Z" style="fill:#84caa0"/>
  <path d="M 48.9326,58.165 60.047,69.1853 71.0673,58.165 Z" style="fill:#77b893"/>
  <path d="M 83.4783,69.1852 72.458,58.1649 83.4783,47.0505 Z" style="fill:#84caa0"/>
  <path d="M 83.4785,69.1852 94.5929,58.1649 83.4785,47.0505 Z" style="fill:#77b893"/>
  <path d="M 24.6648,57.4228 13.6445,46.3084 24.6648,35.2881 Z" style="fill:#75c7e0"/>
  <path d="M 24.665,57.4228 35.7794,46.3084 24.665,35.2881 Z" style="fill:#62a5bb"/>
  <path d="M 13.6445,22.877 24.6648,11.8567 35.7792,22.877 Z" style="fill:#75c7e0"/>
  <path d="M 13.6445,22.8772 24.6648,33.8975 35.7792,22.8772 Z" style="fill:#62a5bb"/>
  <path d="M 36.5216,69.1852 25.4072,58.1649 36.5216,47.0505 Z" style="fill:#75c7e0"/>
  <path d="M 36.4277,69.1852 47.5421,58.1649 36.4277,47.0505 Z" style="fill:#62a5bb"/>
  <path d="M 72.458,34.6397 83.4783,23.6194 94.5927,34.6397 Z" style="fill:#f7963f"/>
  <path d="M 72.458,34.6396 83.4783,45.6599 94.5927,34.6396 Z" style="fill:#e18837"/>
  <path d="M 84.2207,46.4024 95.241,35.3821 106.355,46.4024 Z" style="fill:#dcdb77"/>
  <path d="M 84.2207,46.4023 95.241,57.4226 106.355,46.4023 Z" style="fill:#c5c56c"/>
  <path d="M 95.241,33.8973 84.2207,22.877 95.241,11.8567 Z" style="fill:#dcdb77"/>
  <path d="M 95.2412,33.8973 106.356,22.877 95.2412,11.8567 Z" style="fill:#c5c56c"/>
</svg>
