<svg xmlns="http://www.w3.org/2000/svg" xmlns:xlink="http://www.w3.org/1999/xlink" viewBox="0 0 122 91.315">
  <defs>
    <style>
      .cls-1 {
        fill: #fe5000;
      }

      .cls-2 {
        fill-rule: evenodd;
        opacity: 0.9;
        fill: url(#linear-gradient);
      }
    </style>
    <linearGradient id="linear-gradient" x1="0.537" y1="1" x2="0.546" gradientUnits="objectBoundingBox">
      <stop offset="0" stop-color="#fe5100"/>
      <stop offset="1" stop-color="#f2a900"/>
    </linearGradient>
  </defs>
  <g id="natura" transform="translate(-1658 -37.15)">
    <path id="Path_5" data-name="Path 5" class="cls-1" d="M78.1,112.753V99.19h4.243V96.408H78.1V88.2H73.3v22.258c0,4.591,3.06,7.86,7.721,7.86a5.985,5.985,0,0,1,2.226,0V116.3H81.021C79.56,116.3,78.1,113.866,78.1,112.753Z" transform="translate(1635.684 10.148)"/>
    <path id="Path_7" data-name="Path 7" class="cls-1" d="M137.008,99.8c-5.425,0-8.208,3.617-8.208,8.208v10.712h4.8V106.477c0-2.713,1.461-4.452,4.382-4.452h1.53V99.87C137.981,99.8,138.051,99.8,137.008,99.8Z" transform="translate(1618.787 6.616)"/>
    <path id="Path_8" data-name="Path 8" class="cls-1" d="M47.051,100c-5.217,0-10.851,2.991-10.851,9.529,0,5.564,4.312,9.529,10.016,9.529a8.2,8.2,0,0,0,5.147-1.739V115.65a14.064,14.064,0,0,1-4.034.9c-4.452,0-6.4-3.269-6.4-7.3,0-3.13,1.043-7.582,6.121-7.582,3.478,0,5.773,3.547,5.773,6.608v10.364h4.8v-9.877C57.623,102.991,51.433,100,47.051,100Z" transform="translate(1646.979 6.555)"/>
    <path id="Path_9" data-name="Path 9" class="cls-1" d="M108.6,111.029c0,3.408-3.269,5.982-6.19,5.982-3.547,0-6.051-3.478-6.051-6.677V99.97H91.7v10.99c0,5.495,6.956,8,10.642,8s10.92-2.017,10.92-8.555V99.9H108.6Z" transform="translate(1630.082 6.586)"/>
    <path id="Path_10" data-name="Path 10" class="cls-1" d="M155.79,100c-5.008,0-10.99,3.2-10.99,9.39,0,5.356,4.66,9.668,10.155,9.668a8.7,8.7,0,0,0,5.286-1.739V115.65a15.918,15.918,0,0,1-4.312.9c-5.008,0-6.19-3.686-6.19-7.373,0-2.991.556-7.512,5.773-7.512,2.017,0,5.773,1.53,5.773,5.078V118.78h4.8V107.164C163.928,101.182,159.685,100,155.79,100Z" transform="translate(1613.916 6.555)"/>
    <path id="Path_6" data-name="Path 6" class="cls-1" d="M10.781,99.6C6.469,99.6,0,102.1,0,108.225v10.364H4.8V107.46a6,6,0,0,1,5.982-6.051,6.214,6.214,0,0,1,6.121,6.469v10.781h4.66V107.182C21.562,101.478,13.772,99.6,10.781,99.6Z" transform="translate(1658 6.677)"/>
    <path id="Path_661" data-name="Path 661" class="cls-2" d="M49.106,7.79c-11.268,0-8.416,19.684-14.537,19.684C29.7,27.474,25.875,12.8,16.763,12.8a6.119,6.119,0,0,0-5.912,6.26c0,5.912,10.5,14.676,10.5,16.554,0,1.113-.974,1.391-2.087,1.391L6.956,34.569a1.65,1.65,0,0,0-1.948,1.6c0,8.555,21.423,9.738,21.423,12.172,0,.417-1.878,2.3-1.878,2.643,0,2.226,8.555,2.921,9.668,2.921,5.286,0,5.286-3.13,8.416-3.13.417,0,6.538,1.113,6.956,1.113.209,0,13.076-1.252,13.076-4.521,0-1.113-7.164-1.113-7.164-3.06,0-3.13,18.432-5.286,18.432-15.094,0-1.948-1.043-3.13-3.269-3.13-4.034,0-12.729,6.26-16.137,6.26a1.806,1.806,0,0,1-2.017-1.808c0-2.434,4.521-10.225,4.521-15.024,0-4.66-3.2-7.721-7.929-7.721ZM50.01,0c8.9,0,13.007,6.4,13.007,13.7,0,3.339-1.948,8.347-2.643,11.338,4.1-1.948,8.694-4.869,12.937-4.869,3.617,0,5.634,1.669,5.634,5.217,0,7.234-7.929,14.328-15.789,17.528.765.348,4.869-.07,4.869,1.808,0,2.087-5.425,5.078-5.982,5.356-5.078,2.643-8.208,3.547-13.007,3.547-.417,0-4.591-.487-5.008-.487-.07,0-5.912,2.5-8.694,2.5-.417,0-.835,0-2.574-.139-1.6-.139-13.216-.626-13.216-5.564a8.773,8.773,0,0,1,.348-1.669C14.4,48.48,0,38.464,0,32.691,0,29.909,2.156,29.7,3.826,29.7,7.3,29.7,8,30.813,12.8,31.439c-5.425-5.982-7.651-10.5-7.651-16,0-6.677,4.521-10.155,10.5-10.155,6.886,0,12.52,5.7,17.6,13.424C36.169,8.208,39.855,0,50.01,0Z" transform="translate(1679.006 37.15)"/>
  </g>
</svg>
