<svg width="30" height="29" viewBox="0 0 30 29" fill="none" xmlns="http://www.w3.org/2000/svg">
<path d="M16.3266 0.735713C15.8076 -0.245238 14.1937 -0.245238 13.6747 0.735713L0.175394 26.2344C0.0538754 26.463 -0.00636828 26.7191 0.000532758 26.9778C0.0074338 27.2366 0.0812442 27.4891 0.214772 27.7109C0.3483 27.9326 0.536992 28.116 0.762461 28.2431C0.98793 28.3703 1.24249 28.4368 1.50133 28.4363H28.5C28.7586 28.4369 29.013 28.3704 29.2383 28.2433C29.4637 28.1163 29.6522 27.933 29.7856 27.7114C29.919 27.4897 29.9927 27.2373 29.9995 26.9788C30.0063 26.7202 29.946 26.4643 29.8244 26.2359L16.3266 0.735713ZM16.5006 23.9366H13.5007V20.9367H16.5006V23.9366ZM13.5007 17.9368V10.4372H16.5006L16.5021 17.9368H13.5007Z" fill="#FF7373"/>
</svg>
