<svg width="30" height="30" viewBox="0 0 30 30" fill="none" xmlns="http://www.w3.org/2000/svg">
<path d="M0 9.91071V1.60714C0 0.716518 0.716518 0 1.60714 0H9.91071C10.3527 0 10.7143 0.361607 10.7143 0.803571V3.48214C10.7143 3.92411 10.3527 4.28571 9.91071 4.28571H4.28571V9.91071C4.28571 10.3527 3.92411 10.7143 3.48214 10.7143H0.803571C0.361607 10.7143 0 10.3527 0 9.91071ZM19.2857 0.803571V3.48214C19.2857 3.92411 19.6473 4.28571 20.0893 4.28571H25.7143V9.91071C25.7143 10.3527 26.0759 10.7143 26.5179 10.7143H29.1964C29.6384 10.7143 30 10.3527 30 9.91071V1.60714C30 0.716518 29.2835 0 28.3929 0H20.0893C19.6473 0 19.2857 0.361607 19.2857 0.803571ZM29.1964 19.2857H26.5179C26.0759 19.2857 25.7143 19.6473 25.7143 20.0893V25.7143H20.0893C19.6473 25.7143 19.2857 26.0759 19.2857 26.5179V29.1964C19.2857 29.6384 19.6473 30 20.0893 30H28.3929C29.2835 30 30 29.2835 30 28.3929V20.0893C30 19.6473 29.6384 19.2857 29.1964 19.2857ZM10.7143 29.1964V26.5179C10.7143 26.0759 10.3527 25.7143 9.91071 25.7143H4.28571V20.0893C4.28571 19.6473 3.92411 19.2857 3.48214 19.2857H0.803571C0.361607 19.2857 0 19.6473 0 20.0893V28.3929C0 29.2835 0.716518 30 1.60714 30H9.91071C10.3527 30 10.7143 29.6384 10.7143 29.1964Z" fill="#FF7373"/>
</svg>
