<svg width="22" height="24" viewBox="0 0 22 24" fill="none" xmlns="http://www.w3.org/2000/svg">
<path d="M13.6484 6.66977H13.883V7.21196H13.7213V7.21188L13.7123 7.21204C12.9486 7.22578 12.2131 6.97858 11.6496 6.52849C11.0898 6.08145 10.7427 5.46984 10.6598 4.81797C10.6329 4.48583 10.678 4.15144 10.7933 3.83322C10.9098 3.51183 11.0964 3.21161 11.3448 2.95108C11.5932 2.69045 11.8986 2.47489 12.2444 2.31906C12.5902 2.16321 12.9683 2.07084 13.3565 2.04853L13.5925 2.03497L13.7318 1.84397C14.0762 1.37166 14.5666 0.992971 15.1495 0.758788C15.7326 0.52454 16.3796 0.446618 17.0126 0.536064C17.6455 0.625503 18.2323 0.877681 18.7047 1.25751C19.1768 1.63704 19.5136 2.12661 19.6826 2.66465L19.7558 2.89749L19.9844 2.98304C20.4953 3.17427 20.9127 3.5109 21.1789 3.93104C21.4428 4.34751 21.5458 4.82584 21.4787 5.29395C21.3795 5.82296 21.0739 6.31292 20.6028 6.66915C20.1282 7.02799 19.5207 7.22367 18.8912 7.21205L18.8912 7.21196H18.8819H17.7676H17.2676V7.71196V10.7963V11.2963H17.7676H19.806V11.8385H12.3445V11.2963H16.0753H16.5753V10.7963V7.71196C16.5753 7.45133 16.6885 7.19083 16.9077 6.99103C17.1285 6.78982 17.4371 6.66977 17.7676 6.66977H19.0366C19.0367 6.66977 19.0367 6.66977 19.0368 6.66977C19.4639 6.6699 19.8825 6.52531 20.2098 6.25429C20.5383 5.98229 20.7537 5.5993 20.7981 5.17524C20.8426 4.75052 20.7105 4.33207 20.4396 4.00237C20.1699 3.67421 19.7841 3.45854 19.3634 3.38481L19.363 3.38472L19.1186 3.34213L19.1078 3.26719C19.0515 2.79581 18.8543 2.35259 18.5439 1.98524C18.2324 1.61649 17.8195 1.33876 17.3545 1.17728L17.3474 1.17479L17.3402 1.17253C16.7384 0.983732 16.0824 1.00399 15.495 1.23043C14.907 1.45705 14.4194 1.87856 14.1373 2.42612L14.0358 2.62303L13.773 2.59706L13.773 2.59704L13.7684 2.59663C13.4297 2.56629 13.0871 2.60912 12.7679 2.72275C12.4486 2.83639 12.1591 3.01862 11.9248 3.25807C11.6903 3.49773 11.5177 3.78826 11.4253 4.10757C11.3329 4.42715 11.3245 4.7631 11.4011 5.0867L11.4042 5.09976L11.408 5.11264C11.5455 5.58001 11.8483 5.9819 12.2563 6.26031C12.6621 6.53725 13.152 6.67912 13.6484 6.66977ZM7.95988 13.8807V14.3807H8.45988H9.65219V14.9229H7.26758V12.8385H7.95988V13.8807ZM12.3445 14.3807H14.7291V14.9229H12.3445V14.3807ZM7.26758 8.21196H7.95988V10.2963H7.26758V8.21196Z" fill="#AC0202" stroke="#691D07"/>
<path d="M18.6154 14.9235H17.4231V14.3813H19.8077V21.0923H16.2309H16.1473L16.0682 21.1195L11.802 22.5874L6.86679 19.727L6.69968 19.6301L6.51085 19.6708L0.5 20.9647V3.58594H7.96153V5.67032H7.26922V4.62813V4.12813H6.76922H1.69231H1.19231V4.62813V19.6344V20.2535L1.79752 20.1232L6.83873 19.0381L11.6927 21.8521L11.8902 21.9666L12.1061 21.8923L16.0065 20.5501H18.6154H19.1154V20.0501V15.4235V14.9235H18.6154Z" fill="#AC0202" stroke="#691D07"/>
</svg>
