<svg width="16" height="15" viewBox="0 0 16 15" fill="none" xmlns="http://www.w3.org/2000/svg">
<path d="M13.9905 8.00015H8.22128V7.00021H11.1059V5.00033C11.1059 4.73513 11.2274 4.4808 11.4438 4.29327C11.6602 4.10575 11.9537 4.0004 12.2597 4.0004H13.1251C13.3404 4.00048 13.5481 3.93099 13.7074 3.8055C13.8668 3.68 13.9665 3.50753 13.9869 3.32176C14.0074 3.13599 13.9472 2.95028 13.8182 2.80091C13.6891 2.65154 13.5004 2.54924 13.2889 2.51399L12.8787 2.44599L12.8355 2.16051C12.8059 1.91884 12.6997 1.68899 12.5286 1.49643C12.3576 1.30387 12.1283 1.15613 11.8663 1.06958C11.5292 0.969013 11.1611 0.979954 10.8328 1.1003C10.5045 1.22064 10.2391 1.4419 10.0876 1.72154L9.91223 2.04502L9.50262 2.00652C9.32013 1.99098 9.13598 2.01301 8.96518 2.07082C8.79438 2.12863 8.64175 2.22059 8.51972 2.3392C8.3977 2.45782 8.30973 2.59974 8.26298 2.7534C8.21623 2.90705 8.21202 3.06811 8.2507 3.22345C8.32095 3.45045 8.47714 3.65044 8.69422 3.79133C8.91129 3.93222 9.17668 4.00584 9.44781 4.0004H9.95204V5.00033H9.50089C8.90414 5.01055 8.32451 4.82723 7.87562 4.48631C7.42674 4.14539 7.14098 3.67147 7.07436 3.15745C7.05074 2.89289 7.08804 2.62689 7.18408 2.37493C7.28012 2.12296 7.43299 1.89006 7.63381 1.68974C7.83462 1.48943 8.07938 1.3257 8.35385 1.20808C8.62832 1.09046 8.92703 1.02128 9.23262 1.00458C9.50703 0.64674 9.89394 0.364475 10.3476 0.191162C10.8013 0.017848 11.3027 -0.039266 11.7926 0.0265723C12.2826 0.0924107 12.7405 0.278448 13.1123 0.562688C13.4841 0.846929 13.7542 1.21748 13.8907 1.63054C14.3043 1.77778 14.65 2.03971 14.8736 2.37533C15.0972 2.71096 15.1861 3.10135 15.1264 3.48543C15.0437 3.91511 14.7852 4.30463 14.3984 4.58279C14.0115 4.86095 13.5221 5.00916 13.0195 5.00033H12.2597V7.00021H13.9905V8.00015ZM8.22128 9.00008H10.529V10H8.22128V9.00008ZM5.9136 9.00008V8.00015H4.75977V10H7.06744V9.00008H5.9136ZM4.75977 5.00033H5.9136V7.00021H4.75977V5.00033Z" fill="white"/>
<path d="M8.157 14.9999L4.65741 13.071L0.146484 13.9945V2.00073H5.91567V4.00061H4.76184V3.00067H1.30032V12.7306L4.86626 12.0006L8.2897 13.888L11.0029 13H12.8387V10.0002H11.6849V9.0003H13.9925V14H11.2129L8.157 14.9999Z" fill="white"/>
</svg>
