<svg width="22" height="25" viewBox="0 0 22 25" fill="none" xmlns="http://www.w3.org/2000/svg">
<mask id="path-1-inside-1_1719_11817" fill="white">
<path fill-rule="evenodd" clip-rule="evenodd" d="M4.65705 5.88348C4.91109 2.59184 7.66253 0 11.0193 0C14.3549 0 17.0928 2.55919 17.3765 5.82117C19.9415 6.6485 21.7971 9.0554 21.7971 11.8957C21.7971 15.42 18.9401 18.2771 15.4157 18.2771C13.7557 18.2771 12.2437 17.6432 11.1085 16.6043C9.97341 17.6432 8.4614 18.2771 6.80134 18.2771C3.27698 18.2771 0.419922 15.42 0.419922 11.8957C0.419922 9.12359 2.18748 6.76434 4.65705 5.88348Z"/>
</mask>
<path d="M4.65705 5.88348L5.16098 7.2963L6.0777 6.96931L6.1526 5.9989L4.65705 5.88348ZM17.3765 5.82117L15.8821 5.95115L15.9684 6.9431L16.916 7.24875L17.3765 5.82117ZM11.1085 16.6043L12.1213 15.4978L11.1085 14.5709L10.0958 15.4978L11.1085 16.6043ZM6.1526 5.9989C6.34681 3.48252 8.45227 1.5 11.0193 1.5V-1.5C6.87279 -1.5 3.47537 1.70116 3.16149 5.76805L6.1526 5.9989ZM11.0193 1.5C13.5701 1.5 15.6652 3.4575 15.8821 5.95115L18.8708 5.69119C18.5203 1.66088 15.1397 -1.5 11.0193 -1.5V1.5ZM16.916 7.24875C18.8797 7.8821 20.2971 9.72532 20.2971 11.8957H23.2971C23.2971 8.38548 21.0034 5.41491 17.8369 4.39359L16.916 7.24875ZM20.2971 11.8957C20.2971 14.5916 18.1116 16.7771 15.4157 16.7771V19.7771C19.7685 19.7771 23.2971 16.2485 23.2971 11.8957H20.2971ZM15.4157 16.7771C14.145 16.7771 12.9907 16.2935 12.1213 15.4978L10.0958 17.7108C11.4966 18.9929 13.3663 19.7771 15.4157 19.7771V16.7771ZM10.0958 15.4978C9.22636 16.2935 8.07204 16.7771 6.80134 16.7771V19.7771C8.85076 19.7771 10.7205 18.9929 12.1213 17.7108L10.0958 15.4978ZM6.80134 16.7771C4.10541 16.7771 1.91992 14.5916 1.91992 11.8957H-1.08008C-1.08008 16.2485 2.44855 19.7771 6.80134 19.7771V16.7771ZM1.91992 11.8957C1.91992 9.77754 3.26983 7.97084 5.16098 7.2963L4.15311 4.47066C1.10514 5.55783 -1.08008 8.46964 -1.08008 11.8957H1.91992Z" fill="#691D07" mask="url(#path-1-inside-1_1719_11817)"/>
<path d="M11.0801 7.4668V25.0002" stroke="#691D07" stroke-width="1.5"/>
<path d="M7.23047 12.6388L10.9478 14.6213M14.7581 9.2312L10.9478 11.1518" stroke="#691D07" stroke-width="1.5"/>
</svg>
