<svg width="16" height="16" viewBox="0 0 16 16" fill="none" xmlns="http://www.w3.org/2000/svg">
<path d="M14.4 13C14.4 13.2652 14.3157 13.5196 14.1657 13.7071C14.0157 13.8946 13.8122 14 13.6 14C13.3878 14 13.1843 13.8946 13.0343 13.7071C12.8843 13.5196 12.8 13.2652 12.8 13V1C12.8 0.734784 12.7157 0.48043 12.5657 0.292893C12.4157 0.105357 12.2122 0 12 0H0.8C0.587827 0 0.384344 0.105357 0.234315 0.292893C0.0842854 0.48043 0 0.734784 0 1V14C0 14.5304 0.168571 15.0391 0.468629 15.4142C0.768687 15.7893 1.17565 16 1.6 16H13.6C14.9232 16 16 14.654 16 13V3H14.4V13ZM8 3H10.4V5H8V3ZM8 7H10.4V9H8V7ZM2.4 3H6.4V9H2.4V3ZM2.4 13V11H10.4V13H2.4Z" fill="black"/>
</svg>
