<svg width="20" height="19" viewBox="0 0 20 19" fill="none" xmlns="http://www.w3.org/2000/svg">
<path d="M19.4041 10.5881H10.6802L16.4901 16.398C16.7122 16.62 17.0776 16.638 17.3059 16.423C18.7287 15.0825 19.7074 13.2755 19.9945 11.2443C20.0438 10.8965 19.7552 10.5881 19.4041 10.5881ZM18.8221 8.20571C18.5191 3.81382 15.0096 0.30427 10.6177 0.00132941C10.2824 -0.0218323 10 0.260887 10 0.596916V8.82336H18.2269C18.5629 8.82336 18.8452 8.54101 18.8221 8.20571ZM8.23535 10.5881V1.86419C8.23535 1.51309 7.92689 1.22449 7.57947 1.27375C3.19823 1.89287 -0.150654 5.72043 0.00522739 10.3075C0.165521 15.0186 4.22176 18.8818 8.93498 18.8226C10.7879 18.7994 12.5 18.2024 13.9078 17.2038C14.1982 16.998 14.2173 16.5704 13.9655 16.3186L8.23535 10.5881Z" fill="black"/>
</svg>
