<svg width="22" height="15" viewBox="0 0 22 15" fill="none" xmlns="http://www.w3.org/2000/svg">
<path d="M11.0025 4.71429V8.57143H7.14537V4.71429H11.0025ZM12.2882 11.1429H5.85965V12.4286H12.2882V11.1429ZM12.2882 3.42857H5.85965V9.85714H12.2882V3.42857ZM18.7168 11.1429H13.5739V12.4286H18.7168V11.1429ZM18.7168 8.57143H13.5739V9.85714H18.7168V8.57143ZM18.7168 6H13.5739V7.28571H18.7168V6ZM18.7168 3.42857H13.5739V4.71429H18.7168V3.42857ZM3.28823 13.0714C3.28823 13.423 2.99693 13.7143 2.64537 13.7143C2.29381 13.7143 2.00251 13.423 2.00251 13.0714V3.42857H3.28823V13.0714ZM20.0025 13.0714C20.0025 13.423 19.7112 13.7143 19.3597 13.7143H4.46345C4.53376 13.5134 4.57394 13.2924 4.57394 13.0714V2.14286H20.0025V13.0714ZM21.2882 0.857142H3.28823V2.14286H0.716797V13.0714C0.716797 14.1362 1.58064 15 2.64537 15H19.3597C20.4244 15 21.2882 14.1362 21.2882 13.0714V0.857142Z" fill="#221D18"/>
</svg>
