<svg width="17" height="16" viewBox="0 0 17 16" fill="none" xmlns="http://www.w3.org/2000/svg">
<path d="M16.6016 16V0H0.601562V16H16.6016ZM14.6016 3H2.60156V2H14.6016V3ZM5.60156 5V8H8.60156C8.60156 9.66 7.26156 11 5.60156 11C3.94156 11 2.60156 9.66 2.60156 8C2.60156 6.34 3.94156 5 5.60156 5ZM6.60156 7V5C7.70156 5 8.60156 5.9 8.60156 7H6.60156ZM14.6016 6H10.6016V5H14.6016V6ZM14.6016 9H10.6016V7H14.6016V9ZM14.6016 11H10.6016V10H14.6016V11ZM14.6016 14H2.60156V13H14.6016V14Z" fill="black"/>
</svg>
