<svg width="32" height="32" viewBox="0 0 32 32" fill="none" xmlns="http://www.w3.org/2000/svg">
<path d="M16.5234 30.9987C15.8175 30.9987 15.5268 30.1219 15.4315 29.8337C15.2127 29.1847 14.447 28.8239 13.8874 28.5611C13.6693 28.4586 13.4963 28.3772 13.3716 28.2868C13.0816 28.0762 12.6982 27.7473 12.7052 27.3178C12.7128 26.8545 13.1465 26.5612 13.6057 26.2501C14.103 25.9135 14.6671 25.5317 14.7688 24.9317C14.8559 24.4156 14.6003 23.7532 14.0101 22.963C13.8206 22.7097 13.7875 22.7027 13.7329 22.6919C13.572 22.6601 13.3875 22.6092 13.0588 22.3706C12.1481 21.7139 12.2479 20.8263 12.3535 19.8871C12.384 19.6161 12.4152 19.338 12.426 19.0478C12.1786 18.9473 11.9617 18.8926 11.7659 18.8436C10.8571 18.6152 10.5131 18.3575 10.4845 16.5078C10.1124 16.4282 9.797 16.3773 9.51209 16.3302C8.21604 16.119 7.73654 15.9656 7.32826 14.415C7.11522 14.4754 6.92953 14.5792 6.72412 14.6943C6.3451 14.9056 5.91583 15.1455 5.24046 15.1455C4.04489 15.1455 3.85156 15.0965 3.52341 14.3514C3.50751 14.3145 3.49034 14.2763 3.4719 14.2349C2.69096 14.2171 2.22672 14.0841 1.71543 13.5185C1.14689 12.8885 0.771686 11.425 1.1577 10.1595C1.37901 9.43344 1.93864 8.49364 3.34599 8.14368C3.86873 8.01387 3.98447 7.8707 4.00991 7.81535C4.07287 7.67854 3.92151 7.37758 3.77461 7.08615C3.57683 6.69292 3.35362 6.24688 3.35362 5.7353C3.35362 5.4477 3.47635 5.2549 3.57493 5.10092C3.62135 5.02838 3.66141 4.96539 3.68494 4.89985C3.69957 4.8604 3.71356 4.79677 3.72755 4.72932C3.82421 4.27628 4.02645 3.33329 5.75748 3.33329C5.96162 3.33329 6.23762 3.45164 6.74765 3.6788C7.08279 3.82769 7.51905 4.02176 7.79314 4.08666C7.77406 4.04467 7.74926 3.99376 7.71492 3.93204C7.25322 3.10422 7.3785 2.55129 7.56547 2.23377C7.81667 1.80555 8.25738 1.64647 8.47614 1.64647C10.1143 1.64647 10.6021 1.3805 10.9252 1.20425C11.1096 1.10372 11.3004 1 11.5891 1C11.9516 1 12.2377 1.10562 12.4387 1.31369C12.8044 1.69229 12.7834 2.29549 12.7649 2.82807C12.7535 3.15895 12.7395 3.57063 12.8527 3.68834C12.882 3.71888 12.9398 3.73416 13.0238 3.73416C13.2006 3.73416 13.5561 3.66162 14.2461 3.31802C14.592 3.14558 14.9647 3.06223 15.3857 3.06223C15.5688 3.06223 15.7335 3.0775 15.8658 3.09023C15.9389 3.09723 16.0044 3.10295 16.056 3.1055C16.3027 2.73581 17.0283 1.77119 17.8881 1.77119C18.5304 1.77119 19.0455 2.28086 19.4188 3.28493C20.3047 5.66658 21.0513 5.67422 21.3349 5.67422C21.5034 5.67676 21.6739 5.64049 21.8399 5.60741C22.0071 5.57432 22.1801 5.53996 22.3531 5.53996C23.0418 5.53996 23.342 6.11581 23.5092 6.70183C23.6707 6.69865 23.8405 6.69611 24.0103 6.69611C25.3941 6.69611 26.9363 6.85454 27.8851 8.03169C28.2146 8.43892 28.3074 8.72843 28.3685 8.91995C28.4155 9.06694 28.4225 9.07648 28.4658 9.10448C28.6082 9.19738 28.9847 9.28519 29.2562 9.34309C30.144 9.5327 30.7005 9.95393 30.9097 10.5947C31.4013 12.0982 29.695 14.072 29.4985 14.2915C29.4909 14.2998 29.4833 14.3081 29.475 14.3157L27.3439 16.2622C27.3452 16.7655 27.3541 17.1396 27.3605 17.4463C27.3866 18.6133 27.3777 18.6584 26.8734 19.8579C26.7563 20.1365 26.6107 20.4833 26.4301 20.9287C25.9697 22.0671 25.5264 22.7371 24.9929 23.101C24.4809 23.4504 23.9709 23.4625 23.4316 23.4739C22.9337 23.4854 22.4186 23.4968 21.7858 23.766C20.615 24.2629 20.7212 24.784 20.8147 25.2441C20.8389 25.3631 20.8618 25.4751 20.8618 25.5845C20.8618 26.6961 20.0058 27.634 19.0996 28.6266C18.7345 29.0269 18.3568 29.4404 18.0197 29.8801C17.4232 30.6551 16.9615 31 16.5208 31L16.5234 30.9987ZM7.57501 13.7087C7.72636 13.7087 7.85991 13.8131 7.89489 13.9632C8.07677 14.744 8.24339 15.1423 8.47042 15.3383C8.69363 15.531 9.04213 15.5877 9.61957 15.6819C9.95916 15.7372 10.3808 15.8059 10.887 15.9236C11.0358 15.958 11.1414 16.091 11.1414 16.2437C11.1414 17.153 11.2031 17.6665 11.3411 17.9102C11.4339 18.0737 11.5643 18.1144 11.928 18.2054C12.1894 18.2709 12.5144 18.353 12.9023 18.5395C13.0161 18.5942 13.0886 18.7093 13.0886 18.836C13.0886 19.2406 13.0454 19.6231 13.0072 19.9609C12.9004 20.9103 12.8711 21.4244 13.4448 21.838C13.6852 22.0123 13.7786 22.0308 13.8613 22.0473C14.1087 22.0963 14.2486 22.1829 14.5373 22.5697C15.2496 23.5229 15.5377 24.3316 15.4181 25.0411C15.2699 25.9192 14.5526 26.4047 13.9758 26.7954C13.7329 26.9595 13.3659 27.2083 13.364 27.3292C13.364 27.3432 13.3729 27.4743 13.7583 27.7549C13.8327 27.8083 13.9955 27.8853 14.1685 27.9661C14.7974 28.262 15.7475 28.7087 16.056 29.6256C16.2048 30.0742 16.3796 30.3414 16.5246 30.3414C16.6188 30.3414 16.903 30.2574 17.5015 29.4786C17.855 29.0167 18.2423 28.5923 18.6169 28.1819C19.4703 27.2471 20.2074 26.4397 20.2074 25.5832C20.2074 25.54 20.1902 25.4553 20.1737 25.3732C20.0745 24.8839 19.8678 23.8652 21.5321 23.1589C22.2806 22.8408 22.9127 22.8262 23.4202 22.8147C24.3894 22.7931 24.9744 22.7797 25.824 20.6799C26.0059 20.2301 26.1528 19.8814 26.2705 19.6008C26.5766 18.8724 26.7218 18.1585 26.7061 17.459C26.6985 17.1205 26.6889 16.6999 26.6889 16.1152C26.6889 16.0229 26.7277 15.9345 26.7958 15.8721L29.0209 13.8391C29.8184 12.9401 30.5523 11.6089 30.2865 10.7964C30.1548 10.3942 29.7624 10.1206 29.1201 9.9832C28.0867 9.76241 27.8979 9.60015 27.7433 9.1172C27.6918 8.95559 27.6276 8.75388 27.3751 8.4421C26.6024 7.4832 25.3019 7.35085 24.0116 7.35085C23.7547 7.35085 23.4939 7.35658 23.2644 7.36167H23.2574C23.1054 7.36167 22.9718 7.25668 22.9375 7.10715C22.7251 6.19471 22.4841 6.19471 22.3543 6.19471C22.2462 6.19471 22.1114 6.22143 21.9696 6.24943C21.7826 6.28633 21.5709 6.32833 21.3394 6.32896C20.3117 6.32896 19.5295 5.45979 18.8045 3.51145C18.6207 3.01578 18.3123 2.42594 17.89 2.42594C17.3533 2.42594 16.7186 3.27348 16.5386 3.57063C16.5113 3.61581 16.4738 3.65335 16.4286 3.68134C16.3116 3.75261 16.18 3.76088 16.0909 3.76088C16.0019 3.76088 15.9129 3.75197 15.806 3.74243C15.6814 3.73097 15.5389 3.71761 15.3869 3.71761C15.0658 3.71761 14.7968 3.77679 14.5405 3.90468C13.8766 4.23556 13.3952 4.38954 13.025 4.39018C12.756 4.39018 12.5392 4.30746 12.3815 4.14329C12.0743 3.82515 12.0921 3.30593 12.1093 2.80389C12.1233 2.40239 12.1385 1.94681 11.9675 1.76864C11.9401 1.74065 11.8587 1.65538 11.5904 1.65538C11.4753 1.65538 11.411 1.6872 11.2412 1.7801C10.8603 1.98816 10.2848 2.30249 8.4825 2.30249C8.4418 2.30822 8.22876 2.37885 8.11938 2.5901C7.9941 2.83253 8.0526 3.18567 8.29045 3.61199C8.44371 3.88878 8.59888 4.24128 8.43481 4.51934C8.38075 4.61161 8.24529 4.76623 7.94894 4.76623C7.57755 4.76623 7.0211 4.51871 6.48182 4.27882C6.21663 4.16111 5.85351 3.99949 5.75176 3.98995C4.55809 3.98995 4.45825 4.45571 4.37049 4.86612C4.35078 4.95839 4.33233 5.04492 4.30181 5.12637C4.25475 5.25681 4.18797 5.3618 4.12883 5.4547C4.04934 5.57941 4.01055 5.64368 4.01055 5.7353C4.01055 6.09163 4.18925 6.44731 4.36222 6.79155C4.57844 7.22232 4.80166 7.66709 4.60706 8.09086C4.45889 8.41283 4.10848 8.63299 3.50434 8.78251C2.61465 9.00395 2.03658 9.53207 1.78665 10.3516C1.45405 11.4416 1.82163 12.6556 2.20319 13.0775C2.57141 13.4854 2.84868 13.5795 3.68304 13.5795C3.80895 13.5795 3.92469 13.6521 3.97939 13.766C4.03853 13.8888 4.08495 13.9938 4.12502 14.086C4.23503 14.3355 4.26938 14.4016 4.32597 14.4271C4.45316 14.4837 4.80039 14.4882 5.2411 14.4882C5.7454 14.4882 6.05065 14.3176 6.40487 14.1198C6.72984 13.9384 7.06626 13.7507 7.54703 13.7093C7.5572 13.7081 7.56611 13.7074 7.57565 13.7074L7.57501 13.7087Z" fill="#73964A" stroke="#73964A" stroke-width="0.5"/>
<path d="M28.0936 9.35666H11.6628C11.4809 9.35666 11.334 9.20967 11.334 9.02769C11.334 8.84571 11.4809 8.69873 11.6628 8.69873H28.0936C28.2755 8.69873 28.4224 8.84571 28.4224 9.02769C28.4224 9.20967 28.2755 9.35666 28.0936 9.35666Z" fill="#73964A" stroke="#73964A" stroke-width="0.5"/>
<path d="M22.1775 17.2473H11.0046C10.8227 17.2473 10.6758 17.1003 10.6758 16.9183C10.6758 16.7363 10.8227 16.5894 11.0046 16.5894H22.1775C22.3593 16.5894 22.5062 16.7363 22.5062 16.9183C22.5062 17.1003 22.3587 17.2473 22.1775 17.2473Z" fill="#73964A" stroke="#73964A" stroke-width="0.5"/>
<path d="M16.9217 11.987H1.80535C1.62347 11.987 1.47656 11.84 1.47656 11.6581C1.47656 11.4761 1.62347 11.3291 1.80535 11.3291H16.9217C17.1036 11.3291 17.2505 11.4761 17.2505 11.6581C17.2505 11.84 17.1036 11.987 16.9224 11.987H16.9217Z" fill="#73964A" stroke="#73964A" stroke-width="0.5"/>
<path d="M18.2331 21.1931C18.0525 21.1931 17.9062 21.0474 17.9043 20.8667C17.903 20.6847 18.0487 20.5371 18.2305 20.5352L26.1245 20.4741H26.1271C26.3077 20.4741 26.4539 20.6198 26.4558 20.8005C26.4571 20.9825 26.3115 21.1301 26.1296 21.1321L18.2356 21.1931H18.2331Z" fill="#73964A" stroke="#73964A" stroke-width="0.5"/>
<path d="M18.8913 11.987C18.8048 11.987 18.7196 11.952 18.6585 11.8909C18.5975 11.8299 18.5625 11.7452 18.5625 11.6581C18.5625 11.5709 18.5975 11.4869 18.6585 11.4258C18.7196 11.3647 18.8042 11.3291 18.8913 11.3291C18.9784 11.3291 19.0624 11.3647 19.1234 11.4258C19.1845 11.4869 19.2201 11.5715 19.2201 11.6581C19.2201 11.7446 19.1845 11.8299 19.1234 11.8909C19.0624 11.952 18.9778 11.987 18.8913 11.987Z" fill="#73964A" stroke="#73964A" stroke-width="0.5"/>
<path d="M24.151 17.2473C24.0646 17.2473 23.9793 17.2123 23.9183 17.1512C23.8572 17.0901 23.8223 17.0049 23.8223 16.9183C23.8223 16.8318 23.8572 16.7472 23.9183 16.6861C23.9793 16.6244 24.0639 16.5894 24.151 16.5894C24.2382 16.5894 24.3221 16.6244 24.3832 16.6861C24.4442 16.7472 24.4798 16.8318 24.4798 16.9183C24.4798 17.0049 24.4442 17.0901 24.3832 17.1512C24.3221 17.2123 24.2369 17.2473 24.151 17.2473Z" fill="#73964A" stroke="#73964A" stroke-width="0.5"/>
</svg>
