<svg width="29" height="32" viewBox="0 0 29 32" fill="none" xmlns="http://www.w3.org/2000/svg">
<path d="M12.5706 1.00124C12.3443 1.02454 12.2012 1.32008 12.3195 1.50934L14.2774 4.76903L1.04651 27.2651C0.950149 27.4179 1.01001 27.6305 1.16624 27.7266C4.17539 29.427 7.42398 30.5015 10.7441 30.9979C10.9471 31.0212 11.1383 30.832 11.1267 30.6442C11.1018 30.302 11.0902 29.9468 11.0902 29.593C11.0902 27.4209 11.5442 25.4482 12.248 24.0549C12.9517 22.6616 13.8847 21.8944 14.8279 21.8944C15.7711 21.8944 16.7026 22.6616 17.3946 24.0549C18.0984 25.4482 18.5524 27.4092 18.5524 29.593C18.5524 29.9468 18.5291 30.302 18.5057 30.6442C18.494 30.8451 18.697 31.0212 18.8999 30.9979C22.2084 30.5015 25.4672 29.427 28.4647 27.7266C28.6194 27.632 28.6793 27.4194 28.5844 27.2651L15.3637 4.77048L17.3231 1.5108C17.4194 1.35793 17.3596 1.14537 17.215 1.04929C17.0603 0.954655 16.834 1.01435 16.7493 1.16721L14.9344 4.18959C14.8979 4.17794 14.8629 4.17794 14.8279 4.17794C14.803 4.1663 14.7797 4.1663 14.7563 4.17794C14.7446 4.17794 14.7315 4.17794 14.7198 4.18959L12.905 1.16721C12.8451 1.06093 12.7254 0.989596 12.594 1.00124H12.5706ZM14.7198 5.33536C14.7914 5.34701 14.8629 5.35865 14.9228 5.33536L27.8325 27.3C25.1095 28.7879 22.1836 29.7677 19.1978 30.2525C19.2095 30.04 19.2226 29.8158 19.2226 29.5916C19.2226 27.3248 18.7685 25.2822 18.0049 23.7695C17.2413 22.2467 16.1419 21.2189 14.8279 21.2189C13.5138 21.2189 12.4159 22.2336 11.6508 23.7579C10.8872 25.2691 10.42 27.3248 10.42 29.5916C10.42 29.8274 10.4317 30.04 10.4448 30.2642C7.44734 29.7808 4.52142 28.7879 1.79843 27.3L14.7198 5.33682V5.33536ZM14.7198 6.45783L14.5052 6.65874L14.4804 6.77667V8.1117L14.6235 8.37084L14.9096 8.41743L15.1359 8.22817L15.1608 8.11024V6.77521L15.0177 6.50296L14.7198 6.45492V6.45783ZM14.7198 10.4484L14.5052 10.6609L14.4804 10.7788V12.1139L14.6235 12.3745L14.9096 12.4211L15.1359 12.2202L15.1608 12.1139V10.7788L15.0177 10.5066L14.7198 10.4469V10.4484ZM14.7198 14.452L14.5052 14.6646L14.4804 14.7708V16.1059L14.6235 16.3665L14.9096 16.4262L15.1359 16.2252L15.1608 16.1073V14.7723L15.0177 14.5117L14.7198 14.4535V14.452ZM14.7198 18.4542L14.5052 18.6551L14.4804 18.773V20.108L14.6235 20.3672L14.9096 20.4138L15.1359 20.2245L15.1608 20.1066V18.7716L15.0177 18.4993L14.7198 18.4527V18.4542Z" fill="#73964A" stroke="#73964A" stroke-width="0.5"/>
</svg>
