<svg width="22" height="21" viewBox="0 0 22 21" fill="none" xmlns="http://www.w3.org/2000/svg">
<path d="M5.77088 14.9769H5.6882C5.4163 14.9661 5.15123 15.0636 4.95122 15.2481C4.75121 15.4326 4.63264 15.689 4.62155 15.9609C4.62155 15.9884 4.62155 16.016 4.62155 16.0435C4.61601 16.1782 4.63709 16.3127 4.68356 16.4392C4.73003 16.5657 4.80099 16.6819 4.89238 16.7809C4.98377 16.88 5.09382 16.9601 5.21619 17.0166C5.33857 17.0731 5.47083 17.1049 5.60552 17.1102C5.63307 17.1102 5.66064 17.1102 5.6882 17.1102C5.82276 17.1157 5.9571 17.0947 6.08354 17.0483C6.20998 17.002 6.32604 16.9311 6.4251 16.8398C6.52415 16.7486 6.60427 16.6387 6.66085 16.5165C6.71743 16.3943 6.74936 16.2621 6.75485 16.1275C6.75485 16.0995 6.75485 16.0702 6.75485 16.0435C6.76532 15.7717 6.66764 15.5069 6.4832 15.307C6.29877 15.107 6.04265 14.9883 5.77088 14.9769ZM10.6656 14.9769C10.3937 14.9661 10.1286 15.0636 9.92859 15.2481C9.72858 15.4326 9.60993 15.689 9.59884 15.9609C9.59884 15.9884 9.59884 16.016 9.59884 16.0435C9.59394 16.1836 9.61674 16.3233 9.66582 16.4546C9.71489 16.5859 9.78931 16.7062 9.88489 16.8088C9.98047 16.9113 10.0953 16.994 10.2229 17.0521C10.3504 17.1102 10.4881 17.1426 10.6282 17.1475C10.7683 17.1524 10.908 17.1297 11.0393 17.0807C11.1706 17.0316 11.2909 16.9571 11.3934 16.8615C11.496 16.7659 11.5786 16.6511 11.6368 16.5236C11.6949 16.3961 11.7273 16.2583 11.7322 16.1182C11.7335 16.0934 11.7335 16.0684 11.7322 16.0435C11.7288 15.7617 11.6153 15.4924 11.416 15.2931C11.2167 15.0938 10.9474 14.9803 10.6656 14.9769V14.9769ZM5.16557 8.57691L4.72156 9.02092C4.65469 9.09241 4.61821 9.18703 4.61984 9.28491C4.62147 9.3828 4.66105 9.47627 4.73027 9.54549C4.79949 9.61472 4.89297 9.65429 4.99085 9.65593C5.08873 9.65756 5.18335 9.62108 5.25485 9.5542L5.69218 9.12622L6.1362 9.57023C6.20769 9.63711 6.30239 9.67359 6.40027 9.67196C6.49816 9.67033 6.59155 9.63067 6.66077 9.56144C6.73 9.49222 6.76965 9.39883 6.77129 9.30095C6.77292 9.20306 6.73644 9.10836 6.66956 9.03687L6.23491 8.58358L6.67892 8.13957C6.72326 8.05768 6.74647 7.96601 6.74647 7.87288C6.74647 7.77976 6.72326 7.68809 6.67892 7.6062C6.62446 7.53662 6.54467 7.49146 6.457 7.48047C6.36932 7.46948 6.28085 7.49354 6.2109 7.54753C6.18839 7.56434 6.16816 7.58408 6.15084 7.6062L5.70691 8.05021L5.2629 7.6062C5.19141 7.53932 5.09671 7.50284 4.99883 7.50448C4.90094 7.50611 4.80755 7.54577 4.73833 7.61499C4.6691 7.68421 4.62945 7.77761 4.62781 7.87549C4.62618 7.97337 4.66266 8.06808 4.72954 8.13957L5.16557 8.57691ZM5.16557 12.3102L4.72156 12.7542C4.65469 12.8257 4.61821 12.9204 4.61984 13.0183C4.62147 13.1162 4.66105 13.2096 4.73027 13.2788C4.79949 13.348 4.89297 13.3876 4.99085 13.3892C5.08873 13.3909 5.18335 13.3544 5.25485 13.2875L5.69218 12.8595L6.1362 13.3035C6.20769 13.3704 6.30239 13.4069 6.40027 13.4053C6.49816 13.4036 6.59155 13.3641 6.66077 13.2948C6.73 13.2256 6.76965 13.1321 6.77129 13.0343C6.77292 12.9364 6.73644 12.8417 6.66956 12.7702L6.23491 12.3169L6.67892 11.8729C6.72269 11.7908 6.74557 11.6992 6.74557 11.6062C6.74557 11.5132 6.72269 11.4216 6.67892 11.3395C6.62446 11.2699 6.54467 11.2248 6.457 11.2138C6.36932 11.2028 6.28085 11.2269 6.2109 11.2809C6.18839 11.2977 6.16816 11.3174 6.15084 11.3395L5.70691 11.7835L5.2629 11.3395C5.19141 11.2726 5.09671 11.2362 4.99883 11.2378C4.90094 11.2394 4.80755 11.2791 4.73833 11.3483C4.6691 11.4175 4.62945 11.5109 4.62781 11.6088C4.62618 11.7067 4.66266 11.8014 4.72954 11.8729L5.16557 12.3102ZM18.3135 2.98356H17.5136C17.4826 2.98805 17.4511 2.98631 17.4208 2.97843C17.3905 2.97056 17.3621 2.95667 17.3373 2.93766C17.3124 2.91866 17.2916 2.89492 17.2761 2.86776C17.2606 2.8406 17.2506 2.8106 17.2469 2.77954C17.2443 2.76007 17.2443 2.74034 17.2469 2.72087V1.82886C17.2413 1.52262 17.1167 1.23064 16.8994 1.01481C16.6821 0.798978 16.3892 0.67627 16.0829 0.672852H13.8615C13.5567 0.678328 13.2658 0.80188 13.0502 1.0175C12.8346 1.23311 12.711 1.52398 12.7055 1.82886V2.71818C12.7098 2.74911 12.7079 2.78059 12.7 2.81079C12.692 2.84099 12.6782 2.86932 12.6592 2.89412C12.6402 2.91893 12.6166 2.93975 12.5895 2.95532C12.5624 2.9709 12.5325 2.98093 12.5015 2.98486C12.482 2.9875 12.4624 2.9875 12.4429 2.98486H8.70952C8.67856 2.98936 8.64702 2.98761 8.61674 2.97974C8.58647 2.97186 8.55809 2.95805 8.53325 2.93905C8.5084 2.92004 8.48765 2.89622 8.47213 2.86906C8.45661 2.8419 8.44668 2.81198 8.44292 2.78092C8.44038 2.76145 8.44038 2.74172 8.44292 2.72225V1.83285C8.43912 1.55113 8.32549 1.28207 8.12627 1.08285C7.92704 0.883623 7.6579 0.769991 7.37619 0.766195H5.15353C4.84865 0.771671 4.55779 0.895223 4.34217 1.11084C4.12655 1.32646 4.003 1.61732 3.99752 1.9222V2.81152C4.00183 2.84246 4.00002 2.87393 3.99207 2.90413C3.98412 2.93434 3.97019 2.96266 3.95122 2.98747C3.93224 3.01227 3.90855 3.03309 3.88148 3.04867C3.85441 3.06424 3.82457 3.07427 3.79358 3.07821C3.77368 3.08095 3.75343 3.08095 3.73353 3.07821H2.93356C2.18335 3.05046 1.45282 3.32192 0.902716 3.83276C0.352613 4.34361 0.0279858 5.05204 0.000209693 5.80225C0.000209693 5.84358 0.000209693 5.88486 0.000209693 5.92619V17.3929C-0.00437011 17.7736 0.0661106 18.1514 0.207566 18.5048C0.349022 18.8582 0.55872 19.1804 0.824673 19.4528C1.09062 19.7252 1.40758 19.9425 1.75753 20.0924C2.10749 20.2422 2.48356 20.3217 2.86422 20.3263H18.3989C19.1747 20.3193 19.9168 20.008 20.4654 19.4594C21.014 18.9108 21.3253 18.1687 21.3322 17.3929V5.92619C21.2944 5.14427 20.9622 4.40564 20.4022 3.85856C19.8423 3.31149 19.0961 2.99651 18.3135 2.97689V2.98356ZM14.2242 2.27157C14.2242 2.18357 14.2242 2.18351 14.3122 2.18351H15.8242C15.9122 2.18351 15.9122 2.18357 15.9122 2.27157V2.98356H14.2242V2.27157ZM5.4242 2.27157C5.4242 2.18357 5.42425 2.18351 5.51225 2.18351H7.02422V2.27157V2.98356H5.4242V2.27157ZM19.8242 17.3796C19.8131 17.777 19.6505 18.1551 19.3697 18.4364C19.0888 18.7178 18.7109 18.8811 18.3135 18.8929H2.93087C2.53337 18.8818 2.15518 18.7189 1.87399 18.4377C1.5928 18.1566 1.43 17.7784 1.41891 17.3809V5.91423C1.43064 5.51693 1.59367 5.13913 1.87472 4.85807C2.15577 4.57702 2.53358 4.41391 2.93087 4.40218H18.3976C18.7802 4.43201 19.1379 4.60358 19.4008 4.88322C19.6636 5.16286 19.8127 5.53048 19.8189 5.91423V5.91423L19.8242 17.3796ZM16.1696 8.57959L16.6136 8.13558C16.7082 7.96491 16.7082 7.69821 16.5309 7.60221C16.4764 7.53263 16.3966 7.48739 16.309 7.4764C16.2213 7.46541 16.1328 7.48955 16.0629 7.54354C16.0409 7.56047 16.0211 7.5802 16.0042 7.60221L15.5602 8.04623L15.1162 7.60221C15.0816 7.56525 15.04 7.53567 14.9937 7.51514C14.9474 7.49461 14.8976 7.48359 14.847 7.48275C14.7964 7.4819 14.7461 7.4912 14.6992 7.51017C14.6523 7.52915 14.6096 7.55739 14.5739 7.59318C14.5381 7.62897 14.5098 7.67159 14.4908 7.71851C14.4719 7.76543 14.4625 7.81569 14.4633 7.86629C14.4642 7.9169 14.4752 7.96676 14.4957 8.01302C14.5163 8.05928 14.5459 8.10101 14.5829 8.13558L15.1162 8.57959L14.6722 9.02352C14.6054 9.09501 14.5689 9.18972 14.5705 9.2876C14.5722 9.38548 14.6117 9.47895 14.681 9.54818C14.7502 9.6174 14.8436 9.65698 14.9415 9.65861C15.0393 9.66024 15.134 9.62376 15.2055 9.55689L15.6495 9.11287L16.0935 9.55689C16.165 9.62376 16.2597 9.66024 16.3576 9.65861C16.4555 9.65698 16.5489 9.6174 16.6181 9.54818C16.6874 9.47895 16.7269 9.38548 16.7286 9.2876C16.7302 9.18972 16.6938 9.09501 16.6269 9.02352L16.1696 8.57959ZM15.6362 11.2528H15.5549C15.283 11.242 15.0179 11.3396 14.8179 11.5241C14.6179 11.7086 14.4993 11.965 14.4882 12.2369C14.4882 12.2645 14.4882 12.292 14.4882 12.3196C14.4882 12.6025 14.6006 12.8738 14.8007 13.0738C15.0007 13.2739 15.272 13.3862 15.5549 13.3862C15.8378 13.3862 16.1091 13.2739 16.3091 13.0738C16.5092 12.8738 16.6215 12.6025 16.6215 12.3196C16.6278 12.1842 16.6073 12.0489 16.5611 11.9216C16.5149 11.7942 16.4439 11.6772 16.3523 11.5773C16.2608 11.4774 16.1504 11.3967 16.0275 11.3396C15.9046 11.2825 15.7716 11.2504 15.6362 11.2449V11.2528ZM10.6656 11.2528C10.3937 11.242 10.1286 11.3396 9.92859 11.5241C9.72858 11.7086 9.60993 11.965 9.59884 12.2369C9.59884 12.2645 9.59884 12.292 9.59884 12.3196C9.58894 12.6025 9.69186 12.8777 9.88489 13.0847C10.0779 13.2918 10.3453 13.4137 10.6282 13.4236C10.9111 13.4335 11.1863 13.3306 11.3934 13.1375C11.6004 12.9445 11.7223 12.6771 11.7322 12.3942C11.7335 12.3693 11.7335 12.3445 11.7322 12.3196C11.7305 12.0365 11.6178 11.7653 11.4183 11.5644C11.2189 11.3634 10.9487 11.2487 10.6656 11.2449V11.2528ZM11.6416 9.02352L11.2002 8.58618L11.6443 8.14225C11.6886 8.06037 11.7118 7.96869 11.7118 7.87557C11.7118 7.78245 11.6886 7.69078 11.6443 7.60889C11.5898 7.53931 11.51 7.49406 11.4223 7.48307C11.3347 7.47208 11.2462 7.49623 11.1762 7.55021C11.1542 7.56714 11.1345 7.58687 11.1176 7.60889L10.6735 8.0529L10.2295 7.60889C10.158 7.54201 10.0633 7.50553 9.96546 7.50716C9.86758 7.50879 9.77418 7.54837 9.70496 7.6176C9.63574 7.68682 9.59616 7.78029 9.59453 7.87817C9.5929 7.97606 9.62938 8.07076 9.69625 8.14225L10.1402 8.58618L9.69625 9.03019C9.62938 9.10169 9.5929 9.19639 9.59453 9.29427C9.59616 9.39215 9.63574 9.48555 9.70496 9.55477C9.77418 9.62399 9.86758 9.66365 9.96546 9.66528C10.0633 9.66692 10.158 9.63044 10.2295 9.56356L10.6735 9.11955L11.1176 9.56356C11.1521 9.60052 11.1938 9.6301 11.24 9.65064C11.2863 9.67117 11.3362 9.68218 11.3868 9.68303C11.4374 9.68387 11.4877 9.67458 11.5346 9.6556C11.5815 9.63662 11.6242 9.60838 11.66 9.57259C11.6957 9.5368 11.7239 9.49418 11.7429 9.44727C11.7619 9.40035 11.7712 9.35008 11.7704 9.29948C11.7695 9.24888 11.7585 9.19893 11.738 9.15267C11.7175 9.10641 11.6878 9.06477 11.6508 9.03019L11.6416 9.02352Z" fill="#73964A"/>
</svg>
