<svg width="20" height="24" viewBox="0 0 20 24" fill="none" xmlns="http://www.w3.org/2000/svg">
<path d="M1.13186 2.20358L7.8883 11.776V22.5801C7.8883 22.7487 7.97174 22.8875 8.13687 22.9719C8.19249 23 8.24811 23 8.30373 23C8.38717 23 8.49841 22.9719 8.58011 22.9157L11.9853 20.0323C12.0687 19.948 12.1243 19.8356 12.1243 19.6968V11.776L18.8808 2.17547C19.0198 1.95232 19.0476 1.64308 18.9086 1.39182C18.7695 1.14056 18.521 1 18.2446 1H1.74198C1.46386 1 1.2153 1.16868 1.07624 1.39182C0.966734 1.64308 0.966734 1.95232 1.13186 2.20358ZM18.1055 1.83987L11.3491 11.3842C11.2935 11.4685 11.2657 11.5528 11.2657 11.6354V19.4718L8.69136 21.6559V11.6354C8.69136 11.5511 8.66355 11.4667 8.60792 11.3842L1.8793 1.83987H18.1055Z" fill="#73964A" stroke="#73964A" stroke-width="0.5"/>
</svg>
