<svg width="32" height="32" viewBox="0 0 32 32" fill="none" xmlns="http://www.w3.org/2000/svg">
<path d="M16.53 31C15.8244 31 15.5336 30.1234 15.4372 29.8356C15.218 29.1869 14.4525 28.826 13.8929 28.5631C13.6738 28.4608 13.5014 28.379 13.3772 28.2884C13.0865 28.078 12.7037 27.7493 12.711 27.3198C12.7183 26.8566 13.1522 26.563 13.6124 26.2518C14.1106 25.9143 14.6745 25.533 14.7754 24.934C14.863 24.4182 14.6073 23.7564 14.0156 22.966C13.8257 22.7133 13.7936 22.706 13.7381 22.6957C13.5773 22.6636 13.3933 22.6124 13.0631 22.3743C12.1514 21.7169 12.2522 20.83 12.3574 19.8906C12.3881 19.6203 12.4188 19.3413 12.4305 19.052C12.1836 18.9512 11.9659 18.8971 11.7701 18.8475C10.8614 18.6181 10.5166 18.361 10.4888 16.5113C10.1163 16.4325 9.80068 16.3813 9.51579 16.3346C8.21843 16.1227 7.73922 15.9708 7.33161 14.4192C7.1183 14.4806 6.93276 14.5828 6.72676 14.6983C6.3469 14.9101 5.91737 15.1497 5.24239 15.1497C4.04584 15.1497 3.85299 15.1 3.52426 14.3564C3.50819 14.3199 3.49066 14.2804 3.47313 14.2395C2.6915 14.222 2.2269 14.089 1.71556 13.5236C1.14723 12.8939 0.771755 11.43 1.15746 10.1648C1.37953 9.43869 1.93909 8.49927 3.34602 8.14863C3.86906 8.0186 3.98448 7.87543 4.01077 7.81991C4.0736 7.68258 3.92165 7.38161 3.77555 7.09087C3.57832 6.69787 3.35333 6.25226 3.35333 5.73946C3.35333 5.45164 3.47605 5.25879 3.5754 5.10539C3.62215 5.03234 3.6616 4.96951 3.68643 4.90377C3.70104 4.86432 3.71419 4.80004 3.7288 4.73283C3.82523 4.27993 4.02831 3.33613 5.75958 3.33613C5.96412 3.33613 6.24025 3.45447 6.75013 3.68092C7.0847 3.82994 7.52154 4.02425 7.7962 4.08854C7.77721 4.04617 7.75237 3.99503 7.71731 3.93367C7.25564 3.10529 7.38128 2.55303 7.56829 2.23454C7.81958 1.80647 8.2608 1.64722 8.47995 1.64722C10.1192 1.64722 10.6071 1.38132 10.93 1.20454C11.1141 1.10373 11.3055 1 11.5948 1C11.9571 1 12.2435 1.10519 12.4451 1.31411C12.8103 1.69251 12.7899 2.2959 12.7723 2.82916C12.7607 3.15935 12.746 3.57135 12.86 3.68969C12.8892 3.72037 12.9477 3.73498 13.0309 3.73498C13.2077 3.73498 13.5642 3.66193 14.2538 3.31859C14.6 3.1462 14.9726 3.06292 15.3934 3.06292C15.576 3.06292 15.7411 3.07899 15.874 3.09068C15.9471 3.09798 16.0128 3.10383 16.064 3.10529C16.3109 2.73566 17.037 1.7714 17.8975 1.7714C18.5403 1.7714 19.0561 2.28129 19.4286 3.28499C20.3154 5.66641 21.062 5.67371 21.3454 5.67371C21.5149 5.67663 21.6844 5.64011 21.8509 5.60651C22.0175 5.5729 22.1914 5.5393 22.3637 5.5393C23.0533 5.5393 23.3528 6.11493 23.5209 6.70079C23.683 6.69787 23.8525 6.69494 24.022 6.69494C25.407 6.69494 26.9498 6.85419 27.898 8.03029C28.2282 8.43791 28.3202 8.72718 28.3816 8.91857C28.4283 9.06613 28.4356 9.0749 28.4795 9.10266C28.6212 9.19616 28.9996 9.28382 29.2699 9.3408C30.1581 9.53073 30.7148 9.95149 30.9237 10.5929C31.4146 12.0962 29.7082 14.07 29.5124 14.2892C29.5051 14.2979 29.4963 14.3052 29.489 14.3126L27.3574 16.2586C27.3589 16.7612 27.3676 17.1367 27.3735 17.442C27.3998 18.6093 27.391 18.6546 26.887 19.8526C26.7701 20.1317 26.624 20.4779 26.4443 20.9235C25.9841 22.0617 25.5399 22.7322 25.0067 23.096C24.4939 23.4452 23.984 23.4569 23.4449 23.4686C22.9467 23.4803 22.431 23.492 21.7983 23.7608C20.6266 24.2575 20.7333 24.7791 20.8268 25.2393C20.8516 25.3577 20.8735 25.4701 20.8735 25.5797C20.8735 26.6915 20.0174 27.6295 19.1101 28.6215C18.7449 29.0218 18.3665 29.4353 18.0304 29.875C17.4344 30.6494 16.9712 30.9956 16.5315 30.9956L16.53 31ZM7.57705 13.7121C7.729 13.7121 7.86195 13.8158 7.89701 13.9663C8.07817 14.7465 8.24473 15.1453 8.47264 15.3411C8.69617 15.5339 9.04535 15.5909 9.62244 15.6844C9.96139 15.7399 10.3836 15.8086 10.8906 15.9269C11.0396 15.962 11.1448 16.0935 11.1448 16.2469C11.1448 17.1556 11.2062 17.6699 11.3449 17.9139C11.4385 18.0775 11.5685 18.1184 11.9323 18.209C12.1938 18.2748 12.5181 18.3566 12.9067 18.5421C13.0207 18.5962 13.0938 18.7116 13.0938 18.8387C13.0938 19.2434 13.0499 19.6262 13.0119 19.9637C12.9053 20.9133 12.8761 21.4276 13.4488 21.841C13.6898 22.0149 13.7833 22.0339 13.8652 22.05C14.1135 22.0996 14.2523 22.1858 14.5416 22.5715C15.2546 23.5241 15.5424 24.3335 15.4226 25.0435C15.275 25.9216 14.5562 26.4066 13.9791 26.7967C13.7366 26.9604 13.3684 27.2102 13.367 27.33C13.367 27.3446 13.3757 27.4746 13.7614 27.7551C13.8359 27.8092 13.9996 27.8852 14.172 27.967C14.8017 28.2621 15.7513 28.7092 16.061 29.6267C16.2101 30.0752 16.3854 30.3426 16.53 30.3426C16.6235 30.3426 16.9084 30.2593 17.5074 29.4791C17.861 29.0174 18.2481 28.5937 18.6236 28.1832C19.4783 27.2482 20.2146 26.4417 20.2146 25.5841C20.2146 25.5403 20.1971 25.4555 20.181 25.3737C20.0817 24.8843 19.8742 23.866 21.5397 23.1589C22.2892 22.8404 22.9204 22.8258 23.4288 22.8155C24.3989 22.7936 24.9833 22.7805 25.8336 20.681C26.0162 20.231 26.1623 19.8819 26.2807 19.6013C26.5875 18.8728 26.7326 18.1589 26.716 17.4595C26.7087 17.1206 26.6985 16.6998 26.6985 16.1154C26.6985 16.0234 26.738 15.9343 26.8052 15.8729L29.0317 13.8407C29.8294 12.9421 30.5643 11.6097 30.2984 10.7989C30.1669 10.3971 29.7739 10.1224 29.1311 9.98656C28.0967 9.76595 27.9082 9.60378 27.7533 9.12019C27.7022 8.95802 27.6379 8.7564 27.3852 8.44521C26.6123 7.4868 25.3106 7.35385 24.0205 7.35385C23.7634 7.35385 23.5033 7.3597 23.2725 7.36408H23.2652C23.1132 7.36408 22.9803 7.25889 22.9452 7.10987C22.7334 6.19675 22.4909 6.19675 22.3623 6.19675C22.2542 6.19675 22.1198 6.22304 21.9766 6.25226C21.7896 6.28879 21.5777 6.33116 21.3454 6.33116C20.3169 6.33116 19.5353 5.46187 18.8092 3.51437C18.6251 3.01909 18.3168 2.42885 17.8946 2.42885C17.3569 2.42885 16.7229 3.27622 16.5417 3.57427C16.5139 3.61956 16.476 3.65754 16.4321 3.6853C16.3152 3.75689 16.1838 3.76566 16.0946 3.76566C16.0055 3.76566 15.9164 3.75689 15.8097 3.74666C15.6841 3.73498 15.5424 3.72183 15.3904 3.72183C15.069 3.72183 14.8002 3.78173 14.5431 3.90883C13.8783 4.24048 13.3976 4.39388 13.0266 4.39388C12.7577 4.39388 12.54 4.31061 12.3823 4.14698C12.0754 3.82848 12.093 3.30983 12.1105 2.80725C12.1251 2.40547 12.1397 1.94964 11.9688 1.77286C11.941 1.74511 11.8592 1.66037 11.5919 1.66037C11.4764 1.66037 11.4122 1.69251 11.2427 1.78455C10.8614 1.99201 10.2857 2.30613 8.48287 2.30759C8.44196 2.31343 8.22866 2.38356 8.11908 2.5954C7.99344 2.83793 8.05188 3.19149 8.29002 3.61664C8.44342 3.89422 8.59829 4.24632 8.43466 4.52391C8.3806 4.61595 8.24473 4.77082 7.94815 4.77082C7.57705 4.77082 7.01895 4.52391 6.48131 4.28431C6.21541 4.16597 5.85308 4.00526 5.75081 3.99503C4.55718 3.99503 4.45638 4.46109 4.36872 4.87163C4.34972 4.96367 4.33073 5.04987 4.30005 5.13168C4.2533 5.26171 4.18609 5.3669 4.12619 5.46041C4.04584 5.58459 4.00785 5.64888 4.00785 5.74092C4.00785 6.0974 4.18609 6.45242 4.35995 6.79721C4.57618 7.22821 4.79971 7.67235 4.6054 8.09604C4.45784 8.41745 4.1072 8.63806 3.50235 8.78708C2.6126 9.00916 2.03405 9.53657 1.78422 10.3562C1.45112 11.4461 1.81929 12.6602 2.2006 13.0824C2.56877 13.49 2.84636 13.5835 3.68059 13.5835C3.80623 13.5835 3.92165 13.6566 3.97717 13.7705C4.03561 13.8932 4.08236 13.9984 4.12327 14.0905C4.23284 14.3403 4.26791 14.4061 4.32489 14.4309C4.45199 14.4879 4.79971 14.4923 5.24093 14.4923C5.74497 14.4923 6.05178 14.3213 6.40534 14.1241C6.73114 13.9429 7.06717 13.7559 7.54783 13.7135C7.55806 13.7121 7.56683 13.7121 7.57705 13.7121V13.7121Z" fill="#73964A" stroke="#73964A" stroke-width="0.5"/>
</svg>
