<svg width="15" height="32" viewBox="0 0 15 32" fill="none" xmlns="http://www.w3.org/2000/svg">
<path d="M7.57036 31C7.79491 31 7.94611 30.8503 7.94611 30.6243V25.3683C11.5509 25.0674 14.1407 20.5254 14.1407 14.3293C14.1407 10.8757 12.4132 7.45808 10.9865 5.20509C9.44761 2.8024 7.90868 1.18713 7.83383 1.11228C7.68413 0.962575 7.42066 0.962575 7.30838 1.11228C7.23353 1.18713 5.73204 2.76497 4.15419 5.20509C2.72755 7.45808 1 10.8743 1 14.3293C1 20.524 3.59132 25.0674 7.19461 25.3683V30.6243C7.19461 30.8114 7.34431 31 7.57036 31ZM1.75 14.3293C1.75 8.80988 6.36826 3.29042 7.57036 1.93862C8.73353 3.25299 13.3907 8.80988 13.3907 14.3293C13.3907 19.8488 11.1377 24.3174 7.94611 24.6168V15.6048C7.94611 15.3802 7.79641 15.229 7.57036 15.229C7.34431 15.229 7.19461 15.3787 7.19461 15.6048V24.5778C4.04042 24.2769 1.75 20.0344 1.75 14.3278V14.3293Z" fill="#73964A" stroke="#73964A" stroke-width="0.5"/>
</svg>
