<svg preserveAspectRatio="xMidYMid meet" height="16" width="16" viewBox="0 0 16 16" version="1.1" xmlns="http://www.w3.org/2000/svg">
<path d="M 8 0 A 8 8 0 1 0 16 8 A 8 8 0 0 0 8 0 z M 8 2.0683594 A 1.35 1.35 0 0 1 9.3496094 3.4179688 A 1.35 1.35 0 0 1 8 4.7675781 A 1.35 1.35 0 0 1 6.6503906 3.4179688 A 1.35 1.35 0 0 1 8 2.0683594 z M 6.6666 6 L 9.33334 6 L 9.33334 11.3333 L 10.666016 11.3333 A 0.6666 0.6666 0 0 1 11.3333 12 A 0.6666 0.6666 0 0 1 10.666016 12.666016 L 6 12.666016 A 0.6666 0.6666 0 0 1 6 11.3333 L 7.33334 11.3333 L 7.33334 7.33334 L 6.6666 7.33334 A 0.6666 0.6666 0 0 1 6.6666 6 z" fill="#523096"/>
</svg>
