<?xml version="1.0" encoding="UTF-8" standalone="no"?>
<svg
   width="240"
   height="32"
   viewBox="0 0 240 32"
   fill="none"
   version="1.1"
   id="svg35"
   sodipodi:docname="plenamata.svg"
   inkscape:version="1.1.1 (1:1.1+202109281944+c3084ef5ed)"
   xmlns:inkscape="http://www.inkscape.org/namespaces/inkscape"
   xmlns:sodipodi="http://sodipodi.sourceforge.net/DTD/sodipodi-0.dtd"
   xmlns="http://www.w3.org/2000/svg"
   xmlns:svg="http://www.w3.org/2000/svg">
  <sodipodi:namedview
     id="namedview37"
     pagecolor="#ffffff"
     bordercolor="#666666"
     borderopacity="1.0"
     inkscape:pageshadow="2"
     inkscape:pageopacity="0.0"
     inkscape:pagecheckerboard="0"
     showgrid="false"
     inkscape:zoom="5.25"
     inkscape:cx="120.09524"
     inkscape:cy="16.095238"
     inkscape:window-width="1920"
     inkscape:window-height="1016"
     inkscape:window-x="0"
     inkscape:window-y="27"
     inkscape:window-maximized="1"
     inkscape:current-layer="svg35" />
  <g
     clip-path="url(#clip0)"
     id="g28">
    <path
       d="M48.2244 4.95795C49.2046 5.77216 50.1687 6.86992 50.0512 8.13376C49.9662 9.03303 49.3505 9.78242 48.7996 10.5035C47.6289 12.0387 46.6648 13.7076 45.7615 15.417C46.2354 13.177 45.7169 10.7303 44.9675 8.51453C44.2951 6.52965 43.4525 4.60554 42.448 2.76649C42.1279 2.18723 41.1558 1.22314 41.1558 1.22314C43.7321 2.0252 46.1504 3.24043 48.2244 4.95795Z"
       fill="#FF7373"
       id="path2" />
    <path
       d="M44.9675 8.51865C45.7169 10.7304 46.2354 13.1811 45.7614 15.4212C44.9229 17.0131 44.1371 18.6375 43.2905 20.2213C41.5324 23.5065 39.3936 26.739 36.2664 28.7684C32.1549 31.4339 26.8119 31.6404 22.0928 30.328C19.3018 29.5503 16.685 28.2945 14.1857 26.8119C10.779 23.9116 8.69285 19.4395 7.69636 15.085C7.35204 13.5821 7.17381 12.0104 7.48167 10.4995C7.78953 8.98854 8.56727 7.29127 9.88783 6.50542C11.261 6.1125 12.6423 5.73982 13.9548 5.20107C15.1619 4.70283 16.3002 4.06686 17.4749 3.49165C22.4574 1.06119 28.0312 -0.137842 33.5686 0.0160868C36.1247 0.0890007 38.709 0.469773 41.1517 1.22727C41.1517 1.22727 42.1238 2.19135 42.4398 2.77061C43.4485 4.60966 44.2951 6.53378 44.9675 8.51865Z"
       fill="#917864"
       id="path4" />
    <path
       d="M7.69649 15.085C8.69298 19.4356 10.7791 23.9117 14.1818 26.8039C12.4602 25.7831 10.7913 24.657 9.15882 23.5025C6.01542 21.2827 2.90038 18.9009 0.67651 15.7656C0.0526916 14.8906 -0.32403 13.7726 0.384855 12.9705C1.54337 10.8277 3.508 9.17902 5.67111 8.05291C7.00381 7.35618 8.44184 6.91869 9.88796 6.50146C8.56336 7.28731 7.78966 8.98459 7.4818 10.4955C7.17394 12.0105 7.34813 13.5822 7.69649 15.085Z"
       fill="#FF7373"
       id="path6" />
    <path
       d="M61.2275 25.1267C61.3693 21.8779 61.426 18.2039 61.426 15.1537C61.426 12.1034 61.3693 8.42938 61.2275 5.18066H69.402C73.2178 5.18066 75.8386 7.08858 75.8386 10.8801C75.8386 14.6716 73.2178 16.5795 69.402 16.5795H64.217C64.2454 20.367 64.2737 21.7645 64.4155 25.1267H61.2275ZM69.0941 13.7886C71.1722 13.7886 72.8249 13.1607 72.8249 10.8841C72.8249 8.60357 71.1722 7.97975 69.0941 7.97975H64.3061C64.2494 9.57575 64.2211 11.5687 64.2211 13.7926H69.0941V13.7886Z"
       fill="white"
       id="path8"
       style="fill:#000000" />
    <path
       d="M80.2622 25.1267C80.404 21.8779 80.489 18.2039 80.489 15.1537C80.489 10.9652 80.404 8.42938 80.2622 5.18066H83.5109C83.3691 8.42938 83.2841 10.9652 83.2841 15.1537C83.2841 17.9446 83.3124 20.4521 83.3691 22.3316H94.3386V25.1226H80.2622V25.1267Z"
       fill="white"
       id="path10"
       style="fill:#000000" />
    <path
       d="M98.2109 25.1267C98.3527 21.8779 98.4094 18.2039 98.4094 15.1537C98.4094 12.1034 98.3527 8.42938 98.2109 5.18066H111.315V7.97164H101.285C101.229 9.56765 101.2 11.5606 101.2 13.7561H110.517V16.5471H101.2C101.2 18.7994 101.229 20.7356 101.285 22.3316H111.769V25.1226H98.2109V25.1267Z"
       fill="white"
       id="path12"
       style="fill:#000000" />
    <path
       d="M116.104 25.1267C116.245 21.8779 116.302 18.2039 116.302 15.1537C116.302 12.1034 116.245 8.42938 116.104 5.18066H119.749C122.455 10.1388 125.303 14.7526 128.896 20.7073V14.8701C128.896 12.1075 128.839 8.43343 128.697 5.18471H131.804C131.691 8.43343 131.634 12.1075 131.634 15.1577C131.634 18.2039 131.691 21.882 131.804 25.1307H128.187C125.963 21.0556 121.892 14.3921 119.04 9.66082V15.4453C119.04 18.2079 119.097 21.882 119.239 25.1307H116.104V25.1267Z"
       fill="white"
       id="path14"
       style="fill:#000000" />
    <path
       d="M152.313 25.1265C151.77 23.6156 151.147 21.9629 150.49 20.2534H140.489C139.833 21.9629 139.209 23.6156 138.666 25.1265H135.105C139.436 15.4411 140.602 12.5043 143.482 5.18457H147.501C150.377 12.5043 151.576 15.4411 155.906 25.1265H152.313ZM149.405 17.4625C148.064 14.072 146.67 10.6815 145.5 7.97555C144.305 10.7382 142.907 14.1003 141.595 17.4625H149.405Z"
       fill="white"
       id="path16"
       style="fill:#000000" />
    <path
       d="M165.733 16.2108C164.822 14.2178 163.169 10.7422 162.229 8.86267C162.201 10.3736 162.173 13.2213 162.173 15.1576C162.173 18.2037 162.229 21.8818 162.371 25.1306H159.179C159.321 21.8818 159.378 18.2078 159.378 15.1576C159.378 12.1073 159.321 8.43329 159.179 5.18457H163.878C165.531 9.11787 167.127 12.8203 170.201 19.2569C173.28 12.8203 174.872 9.11382 176.496 5.18457H181.195C181.053 8.43329 180.997 12.1073 180.997 15.1576C180.997 18.2037 181.053 21.8818 181.195 25.1306H178.031C178.145 21.8818 178.202 18.2078 178.202 15.1576C178.202 13.2213 178.173 10.3696 178.145 8.86267C177.205 10.7422 175.552 14.2178 174.641 16.2108C172.846 19.9982 171.793 22.3639 170.197 25.9245C168.609 22.3639 167.528 19.9982 165.733 16.2108Z"
       fill="white"
       id="path18"
       style="fill:#000000" />
    <path
       d="M201.684 25.1265C201.141 23.6156 200.517 21.9629 199.861 20.2534H189.86C189.203 21.9629 188.58 23.6156 188.037 25.1265H184.476C188.806 15.4411 189.973 12.5043 192.853 5.18457H196.871C199.748 12.5043 200.947 15.4411 205.277 25.1265H201.684ZM198.779 17.4625C197.439 14.072 196.045 10.6815 194.874 7.97555C193.679 10.7382 192.282 14.1003 190.969 17.4625H198.779Z"
       fill="white"
       id="path20"
       style="fill:#000000" />
    <path
       d="M210.462 25.1265C210.576 21.6509 210.661 18.4022 210.661 13.7317V7.97555H203.709V5.18457H220.403V7.97555H213.452V13.7317C213.452 18.4022 213.508 21.6509 213.622 25.1265H210.462Z"
       fill="white"
       id="path22"
       style="fill:#000000" />
    <path
       d="M236.018 25.1265C235.475 23.6156 234.852 21.9629 234.195 20.2534H224.194C223.538 21.9629 222.914 23.6156 222.371 25.1265H218.811C223.141 15.4411 224.307 12.5043 227.188 5.18457H231.206C234.082 12.5043 235.281 15.4411 239.611 25.1265H236.018ZM233.11 17.4625C231.769 14.072 230.376 10.6815 229.205 7.97555C228.01 10.7382 226.612 14.1003 225.3 17.4625H233.11Z"
       fill="white"
       id="path24"
       style="fill:#000000" />
    <path
       d="M26.707 6.38398C23.8714 6.89437 21.0237 8.57544 20.25 11.334C19.7072 13.2743 20.3108 15.4091 21.5139 17.0253C22.7169 18.6416 24.4547 19.7839 26.2776 20.6346C27.2012 21.064 28.1855 21.4326 29.2022 21.3921C30.1258 21.3556 31.0008 20.9789 31.8109 20.5333C33.253 19.7434 34.6222 18.6214 35.165 17.0699C35.9994 14.6881 34.6586 12.1037 33.095 10.1188C31.5031 8.0934 29.2549 6.15308 26.707 6.38398Z"
       fill="#80CC34"
       id="path26" />
  </g>
  <defs
     id="defs33">
    <clipPath
       id="clip0">
      <rect
         width="239.607"
         height="31.1099"
         fill="white"
         id="rect30" />
    </clipPath>
  </defs>
</svg>
