<svg width="40" height="39" viewBox="0 0 40 39" fill="none" xmlns="http://www.w3.org/2000/svg">
<path d="M39.7884 13.365C40.1061 13.6012 40.0336 14.118 39.7847 14.4262C39.5339 14.7345 39.1642 14.919 38.8782 15.194C38.5902 15.4672 38.3914 15.9175 38.5976 16.2553C38.8726 16.7038 39.6825 16.6798 39.8181 17.1874C39.911 17.538 39.5897 17.8555 39.2757 18.0382C38.9618 18.2191 38.5884 18.3889 38.4695 18.7303C38.3023 19.2028 38.7165 19.6569 39.0175 20.0592C39.3184 20.4616 39.4485 21.1703 38.9785 21.3549C38.6942 21.4675 38.3803 21.2847 38.0719 21.2866C37.5889 21.2884 36.987 21.7905 37.4849 22.2316C37.7431 22.5472 38.1016 22.8277 38.1592 23.2301C38.2187 23.6324 38.0236 24.0994 37.6335 24.2249C37.3641 24.3116 37.0706 24.223 36.7864 24.2378C36.1102 24.2766 35.5751 25.0278 35.7646 25.6737C35.8018 25.8048 35.865 25.9358 35.8445 26.0706C35.8018 26.3271 35.4841 26.436 35.224 26.4249C34.9621 26.412 34.6927 26.3308 34.4475 26.4194C34.0017 26.5781 33.9106 27.1595 33.9348 27.6301C33.9571 28.0989 33.9831 28.6545 33.6116 28.9443C33.3069 29.1842 32.8759 29.127 32.4876 29.1122C32.1012 29.0975 31.6312 29.1953 31.5012 29.5589C31.3804 29.8985 31.6331 30.2436 31.8059 30.5629C31.9805 30.8804 32.0121 31.3842 31.6702 31.5042C31.5402 31.5485 31.399 31.519 31.2653 31.4876C30.6467 31.3436 29.7977 31.3049 29.5822 31.8992C29.4187 32.3495 29.7847 32.8663 29.6212 33.3185C29.3983 33.9349 28.5047 33.8611 27.8768 33.6581C27.2489 33.4569 26.3684 33.3499 26.1083 33.9516C25.9058 34.424 26.2903 35.011 26.0563 35.4687C25.8092 35.9486 25.1144 35.9098 24.5831 35.7917C24.0537 35.6754 23.3682 35.6127 23.0951 36.0796C22.9409 36.3454 22.991 36.6998 22.809 36.9489C22.5155 37.3513 21.8783 37.1962 21.4417 36.9508C21.007 36.7034 20.4906 36.3989 20.0447 36.6259C19.5153 36.8954 19.5153 37.7223 19.0063 38.0286C18.1183 38.5639 16.9479 36.9618 16.0915 37.5488C15.6884 37.8238 15.6271 38.4716 15.1738 38.6525C14.7763 38.8112 14.3508 38.5048 14.0759 38.18C13.801 37.8552 13.5316 37.4639 13.1118 37.3827C12.599 37.283 12.1365 37.6964 11.8262 38.1135C11.7352 38.2372 11.6405 38.3682 11.4993 38.4255C11.1091 38.5823 10.7822 38.0951 10.6763 37.6909C10.5723 37.2867 10.3884 36.7717 9.96852 36.7754C9.36291 36.7828 9.12883 37.905 8.55109 37.7296C8.08294 37.5875 8.27615 36.8659 8.03836 36.4395C7.76528 35.9504 7.04263 36.0187 6.50204 36.183C5.9633 36.3454 5.27966 36.4986 4.91555 36.0704C4.57559 35.6699 4.7818 35.0719 4.92484 34.5662C5.06789 34.0623 4.82453 33.3683 4.30994 33.2521C3.88081 33.6563 2.99654 33.7615 2.4801 33.4754C1.9618 33.1893 1.66643 32.5544 1.78532 31.9785C1.91164 31.3584 2.45595 30.8213 2.36121 30.1975C2.20516 29.1676 0.484924 28.8741 0.477493 27.8332C0.473778 27.0838 1.43235 26.5191 1.27631 25.7845C1.12398 25.0721 0.00749331 24.81 6.24797e-05 24.0809C-0.00736835 23.5272 0.65026 23.1839 0.776584 22.6468C0.958639 21.8587 -0.0482379 21.0042 0.414331 20.3398C0.696703 19.9319 1.37848 19.93 1.60884 19.4908C1.88378 18.9647 1.26888 18.3649 1.34504 17.7761C1.45465 16.9364 2.8182 16.7315 2.93895 15.8936C3.01512 15.3675 2.54141 14.7898 2.83121 14.3432C3.14888 13.8522 3.95884 14.142 4.46599 13.8467C5.15891 13.4425 4.84496 12.3111 5.34654 11.6873C6.01903 10.853 7.81544 11.2812 8.05879 10.2403C8.1201 9.97819 8.04208 9.69026 8.14425 9.44294C8.45449 8.70468 9.69915 9.22885 10.3363 8.73974C10.9605 8.26356 10.7023 7.04358 11.4305 6.74643C12.0361 6.50095 12.7365 7.18938 13.3365 6.92914C14.0499 6.62092 13.9626 5.25697 14.7391 5.21821C15.0828 5.19975 15.3707 5.4969 15.7125 5.51905C16.4259 5.5615 16.6525 4.53531 17.2637 4.16987C18.031 3.70845 19.1549 4.43195 19.8775 3.90409C20.2992 3.59587 20.5147 2.90374 21.0386 2.93327C21.3358 2.95173 21.555 3.21935 21.8337 3.3264C22.8759 3.72691 23.7341 1.80742 24.7912 2.16548C25.133 2.28175 25.3726 2.62136 25.7256 2.69888C26.1659 2.7967 26.5653 2.4534 26.935 2.195C27.3046 1.93846 27.9976 1.48627 28.7945 2.38142C29.0397 2.65827 29.5246 2.2596 29.7085 1.93845C29.8924 1.61731 29.9593 1.2371 30.1636 0.927031C30.3661 0.618804 30.8027 0.399173 31.1092 0.607734C31.4863 0.864281 31.3934 1.55641 31.8151 1.72621C32.1254 1.84802 32.4542 1.56379 32.588 1.2611C32.7199 0.956561 32.7551 0.605886 32.9558 0.34011C33.2214 -0.00872158 33.7657 -0.106546 34.1373 0.127853C34.5088 0.360407 34.6519 0.893815 34.4494 1.27956C34.3119 1.5398 34.0555 1.71513 33.9014 1.96614C33.749 2.21531 33.7657 2.62135 34.0444 2.71364C34.2729 2.79115 34.4958 2.60475 34.7225 2.52538C35.2872 2.32421 35.9467 2.95727 35.7628 3.52389C35.6643 3.82842 35.395 4.04436 35.2148 4.30829C35.0327 4.57407 34.964 4.9875 35.2259 5.17576C35.7015 5.51905 36.5634 4.69034 36.8644 5.19237C36.9331 5.30495 36.9276 5.44707 36.8997 5.57442C36.805 6.01923 36.4817 6.38098 36.3424 6.81287C36.2031 7.24475 36.3851 7.85567 36.8421 7.87782C37.1579 7.89259 37.4533 7.60834 37.7561 7.69509C38.1834 7.8169 38.0998 8.45367 37.8564 8.82095C37.6112 9.19009 37.2861 9.64597 37.5183 10.0225C37.7208 10.3492 38.1908 10.3381 38.5791 10.3455C38.9655 10.351 39.4596 10.5319 39.4429 10.9176C39.4373 11.045 39.3723 11.1631 39.2961 11.2646C39.0825 11.5562 38.7816 11.7796 38.5902 12.0859C38.3989 12.3923 38.3617 12.8482 38.6497 13.0678C38.9636 13.3115 39.4689 13.1269 39.7884 13.365ZM36.3647 17.8869C36.9907 14.262 35.9746 10.4636 33.9757 7.36657C33.4667 6.57847 32.8945 5.83097 32.326 5.08348C31.7873 4.37659 31.2393 3.9447 29.9426 4.08128C24.297 5.18499 18.3003 6.38836 13.4944 9.53153C12.2758 10.3289 11.1407 11.2406 10.041 12.1911C7.46619 14.4152 4.98243 17.0009 4.08144 20.2696C3.67461 21.7443 3.64303 23.291 3.64117 24.821C3.63374 30.5555 6.8197 32.2499 8.45449 33.2779C11.4956 35.19 15.3837 35.4595 18.8706 34.5809C22.3594 33.7006 25.4934 31.7681 28.3022 29.5349C32.0901 26.5246 35.5436 22.6376 36.3647 17.8869Z" fill="#FFF087"/>
<path d="M33.9751 7.36649C35.974 10.4635 36.9902 14.2619 36.3641 17.8868C35.543 22.6376 32.0896 26.5245 28.3017 29.5348C25.4928 31.7681 22.3589 33.7005 18.8701 34.5809C15.3832 35.4594 11.495 35.1899 8.45396 33.2778C6.81917 32.2498 3.63321 30.5555 3.64064 24.821C3.6425 23.2909 3.67408 21.7442 4.08091 20.2696C4.9819 17.0009 7.46566 14.4151 10.0404 12.1911C11.1402 11.2406 12.2753 10.3288 13.4939 9.53146C18.2998 6.38828 24.2965 5.18492 29.9421 4.08121C31.2387 3.94463 31.7868 4.37651 32.3255 5.0834C32.8939 5.8309 33.4661 6.57839 33.9751 7.36649ZM24.5436 24.4352C26.1022 22.1651 26.4533 19.1216 25.452 16.5616C25.2736 16.1076 25.0544 15.6665 24.7442 15.2899C24.4618 14.9467 24.1107 14.6661 23.7447 14.4133C22.4704 13.5403 20.9619 12.9792 19.4163 12.9256C17.8707 12.8721 16.0408 13.5163 14.8482 14.4963C13.1744 15.6868 11.8629 17.8185 11.6251 19.8524C11.3873 21.8845 11.9372 23.9738 13.0072 25.7235C13.3342 26.2569 13.7131 26.7682 14.2017 27.1594C15.112 27.8903 16.3251 28.1487 17.4954 28.145C20.2615 28.1395 22.9849 26.7054 24.5436 24.4352Z" fill="#523096"/>
<path d="M25.452 16.5618C26.4533 19.1218 26.1022 22.1653 24.5436 24.4354C22.985 26.7056 20.2616 28.1397 17.4955 28.1452C16.3251 28.1489 15.112 27.8905 14.2017 27.1596C13.7132 26.7684 13.3342 26.2571 13.0072 25.7237C11.9372 23.974 11.3873 21.8847 11.6251 19.8527C11.8629 17.8187 13.1744 15.687 14.8482 14.4965C16.0409 13.5165 17.8707 12.8723 19.4163 12.9259C20.9619 12.9794 22.4704 13.5405 23.7448 14.4135C24.1108 14.6663 24.4619 14.9469 24.7442 15.2902C25.0545 15.6667 25.2737 16.1078 25.452 16.5618Z" fill="#FF7373"/>
</svg>
