<svg width="18" height="13" viewBox="0 0 18 13" fill="none" xmlns="http://www.w3.org/2000/svg">
<path d="M4.32812 6.29277H6.57813L3.59013 9.28077L0.566125 6.29277H2.81613C2.81613 5.21277 3.09213 4.20477 3.64413 3.26877C4.17213 2.35677 4.89213 1.63677 5.80413 1.10877C6.74013 0.556773 7.74813 0.280773 8.82812 0.280773C9.40413 0.280773 9.96213 0.364773 10.5021 0.532773C11.0541 0.688773 11.5641 0.922773 12.0321 1.23477L10.9341 2.31477C10.2981 1.96677 9.59613 1.79277 8.82812 1.79277C8.01213 1.79277 7.25613 1.99677 6.56013 2.40477C5.87613 2.80077 5.33013 3.34677 4.92213 4.04277C4.52613 4.72677 4.32812 5.47677 4.32812 6.29277ZM14.0661 3.30477L17.0901 6.29277H14.8401C14.8401 7.37277 14.5641 8.38077 14.0121 9.31677C13.4841 10.2288 12.7641 10.9488 11.8521 11.4768C10.9161 12.0288 9.90813 12.3048 8.82812 12.3048C8.26413 12.3048 7.70613 12.2208 7.15413 12.0528C6.60213 11.8848 6.09213 11.6508 5.62413 11.3508L6.72213 10.2708C7.35813 10.6188 8.06013 10.7928 8.82812 10.7928C9.64413 10.7928 10.3941 10.5948 11.0781 10.1988C11.7741 9.79077 12.3201 9.24477 12.7161 8.56077C13.1241 7.86477 13.3281 7.10877 13.3281 6.29277H11.0781L14.0661 3.30477Z" fill="#523096"/>
</svg>
