<svg width="16" height="16" viewBox="0 0 16 16" fill="none" xmlns="http://www.w3.org/2000/svg">
<circle cx="8" cy="8" r="7.5" stroke="#1A2C31"/>
<path d="M7.14872 9.85208V9.31339C7.14872 9.03832 7.19074 8.80528 7.27479 8.61425C7.36648 8.41559 7.47728 8.24367 7.60717 8.09849C7.74471 7.94568 7.88988 7.81196 8.0427 7.69735C8.19552 7.57509 8.33687 7.45666 8.46677 7.34205C8.6043 7.21979 8.7151 7.08608 8.79915 6.9409C8.89084 6.79573 8.93668 6.63145 8.93668 6.44807C8.93668 6.36402 8.92522 6.2685 8.9023 6.16153C8.87938 6.05456 8.82971 5.95141 8.7533 5.85208C8.68453 5.7451 8.57756 5.66105 8.43239 5.59993C8.28721 5.53116 8.09619 5.49678 7.85932 5.49678C7.59953 5.49678 7.38941 5.53498 7.22895 5.61139C7.07613 5.6878 6.9577 5.78713 6.87365 5.90938C6.79724 6.024 6.74375 6.14625 6.71319 6.27615C6.69026 6.40604 6.6788 6.52829 6.6788 6.64291C6.6788 6.69639 6.6788 6.74988 6.6788 6.80337C6.6788 6.84921 6.68262 6.89888 6.69026 6.95236H5.12006C5.11242 6.90652 5.10096 6.84921 5.08568 6.78044C5.07804 6.71168 5.07422 6.63145 5.07422 6.53976C5.07422 6.27233 5.11242 6.02018 5.18883 5.78331C5.27288 5.54644 5.39132 5.3325 5.54413 5.14147C5.70459 4.94281 5.90325 4.77471 6.14012 4.63718C6.37699 4.492 6.64824 4.38121 6.95388 4.3048C7.25951 4.22839 7.59953 4.19019 7.97393 4.19019C8.29485 4.19019 8.59284 4.22075 8.86792 4.28188C9.15063 4.33536 9.39896 4.42323 9.6129 4.54549C9.83449 4.6601 10.0217 4.80146 10.1745 4.96955C10.3273 5.13765 10.4458 5.3325 10.5298 5.55408C10.6139 5.77567 10.6559 6.02018 10.6559 6.28761C10.6559 6.62381 10.6062 6.91034 10.5069 7.14721C10.4076 7.37643 10.2777 7.57892 10.1172 7.75466C9.96438 7.92275 9.8001 8.07175 9.62436 8.20165C9.44862 8.33154 9.28052 8.46144 9.12006 8.59133C8.96725 8.71359 8.84117 8.8473 8.74184 8.99248C8.64251 9.13765 8.59284 9.31339 8.59284 9.5197V9.85208H7.14872ZM7.05703 12.1902V10.5856H8.68453V12.1902H7.05703Z" fill="#1A2C31"/>
</svg>
